<svg id="Calque_1" data-name="Calque 1" xmlns="http://www.w3.org/2000/svg" viewBox="0 0 1000.03 76.45"><defs><style>.cls-1{fill:#fff;}</style></defs><path class="cls-1" d="M118,34.83q-10,5.36-26.3,12.41-7,13.13-7,17.42c0,2.73,2,4.1,6.09,4.09a21.75,21.75,0,0,0,9.12-2,27.09,27.09,0,0,0,7.56-5,61.75,61.75,0,0,0,4.88-5.09A26.77,26.77,0,0,0,115,52.89l1,.42a49.86,49.86,0,0,1-2.88,4.82q-1.95,2.94-5.2,7a32.12,32.12,0,0,1-7.55,6.93,15.19,15.19,0,0,1-8.29,2.83c-3.33,0-5.75-.8-7.24-2.41a8.12,8.12,0,0,1-2.2-5.67q0-5.67,6.92-18.68-25.08,11-48.42,19.15T7,75.43q-7,0-7-3.88Q0,69,2.94,65.78a45.13,45.13,0,0,1,8.76-7Q17.52,55,23.76,51.44t15.58-7.92Q48.69,39.16,55.66,36t17.15-7.45Q83,24.24,88.24,22.08l13.53-5.51.53.95Q77.29,27,40.66,45T4,68c0,.78,1,1.16,3.14,1.16q10.08,0,34.42-7.08T91.29,45Q99.58,30.43,117.1,4.19l-1.26-.52q-13.53,9.86-40.6,9.86-13.24,0-33.9-3.29T14.27,7Q3,7,3,12.69q0,4.72,6.72,10.49l-.84.74Q1.42,17.83,1.43,11.64A9.58,9.58,0,0,1,5.1,4Q8.78.93,16.33.94q4.08,0,26.8,3.31t38.25,3.3a107.86,107.86,0,0,0,22.82-2q9.28-2,12.22-4.56l3.78,1.47Q117,6.5,108.4,19.77t-15,24.47q12.16-4.82,24.13-10.38Z" transform="translate(0 -0.03)"/><path class="cls-1" d="M147.52,75.43q-20.88,0-20.88-13.32a13.56,13.56,0,0,1,5-10.65,36.7,36.7,0,0,1,12.18-6.82q7.13-2.46,14.26-4.77a43.34,43.34,0,0,0,12.18-6q5-3.67,5-8.92a10.06,10.06,0,0,0-4.67-8.55Q165.93,13,156.8,13q-9.56,0-16,3.62t-6.4,9.28q0,5.46,6.71,11.12l-.84.74q-7.44-5.67-7.45-12.49t7-11.38A29.79,29.79,0,0,1,156.4,9.31a34.42,34.42,0,0,1,6.24.58,31,31,0,0,1,6.51,2,12.45,12.45,0,0,1,5.51,4.61,13.31,13.31,0,0,1,2.1,7.56,15.57,15.57,0,0,1-5,11.59,36.11,36.11,0,0,1-12.17,7.66q-7.14,2.78-14.27,5.19a55,55,0,0,0-12.07,5.69q-5,3.25-5,7.66,0,7.77,15.95,7.76a78,78,0,0,0,19.42-2.42,81.7,81.7,0,0,0,16.53-6A76.7,76.7,0,0,0,194.1,52a112.43,112.43,0,0,0,11.33-10.49,112,112,0,0,0,9.24-11.59c3.14-4.48,5.51-8,7.08-10.7s3.37-5.81,5.4-9.45l5.56.42q-21.83,34.74-21.82,48.9,0,5.25,2.57,7.39c1.71,1.44,4.25,2.15,7.61,2.15A15.8,15.8,0,0,0,228,67a24.48,24.48,0,0,0,5.83-3.88,35.59,35.59,0,0,0,4.61-5.2,52,52,0,0,0,3.36-5.09,41.52,41.52,0,0,0,2-4.14l1,.42a28,28,0,0,1-1.46,4.09A62.35,62.35,0,0,1,240,59.77a58.33,58.33,0,0,1-4.83,7.13,26.11,26.11,0,0,1-6.24,5.67,13.4,13.4,0,0,1-7.4,2.36q-6.09,0-9.23-4c-2.1-2.65-3.15-6.26-3.15-10.8a42.38,42.38,0,0,1,3.2-15.48,138.26,138.26,0,0,1,9.39-18.73q6.19-10.59,7.24-12.8l-1.57-.42q-3.15,5.46-5.72,9.65t-7.5,11.13a144.74,144.74,0,0,1-9.55,12.11,132.25,132.25,0,0,1-11.33,11.13,80.88,80.88,0,0,1-13.43,9.75,73.75,73.75,0,0,1-15.16,6.4A58.78,58.78,0,0,1,147.52,75.43Z" transform="translate(0 -0.03)"/><path class="cls-1" d="M344.56,9.33q10.17,0,15.06,4.46T364.5,26q0,9-7.45,17.2l-1.16-1.15q7-7.77,7-15.21,0-11.23-17.94-11.23-22.87,0-48.53,17.1a149.21,149.21,0,0,0-42.23,42.18l-2.52-1q0-18.34,7.35-32.21t21.72-26.12a71.3,71.3,0,0,0-16.32,2.1,58.82,58.82,0,0,0-12.64,4.4l-.42-.94a75.44,75.44,0,0,1,36.93-10.28,108.42,108.42,0,0,0-11.43,11.75,156.49,156.49,0,0,0-11.28,15.11A87,87,0,0,0,256.76,55a46.92,46.92,0,0,0-3.41,16.37l1.05.32a150.21,150.21,0,0,1,18.42-22.82A179.27,179.27,0,0,1,295.69,28.9a122.12,122.12,0,0,1,25-14.16Q333.65,9.34,344.56,9.33Z" transform="translate(0 -0.03)"/><path class="cls-1" d="M406.78,75.85q-15.54,0-22.72-5.35a16.72,16.72,0,0,1-7.19-14.06,16.92,16.92,0,0,1,6-13.06A19.15,19.15,0,0,1,395.93,38q10,0,13.95,10.07l-.94.63a10.69,10.69,0,0,0-4.77-4.25,18,18,0,0,0-8.24-1.73q-7.67,0-12.59,4a12.1,12.1,0,0,0-4.93,9.75q0,6.51,7,10.23t21.3,3.73a96.28,96.28,0,0,0,23.66-2.83,91.82,91.82,0,0,0,19.09-6.88,75.65,75.65,0,0,0,15-10.12,101.65,101.65,0,0,0,11.28-11.07,92.9,92.9,0,0,0,8-11.12q3.78-6.13,5.09-8.92t2.57-5.93l-1.16-1A35.59,35.59,0,0,1,478,19.56q-7,2.37-17.89,2.36-6,0-9,3a10.84,10.84,0,0,0-3,8l-1.05-.1a47.51,47.51,0,0,1,.26-5.72,14.13,14.13,0,0,1,1.36-4.41,7.81,7.81,0,0,1,3.15-3.41,19.93,19.93,0,0,1,5.67-1.89,45.36,45.36,0,0,1,8.86-.73q15.84,0,24.45-7.35l3.25,2.52a53.42,53.42,0,0,1-2.25,5.56,108.5,108.5,0,0,1-5.41,9.87,137.12,137.12,0,0,1-8.5,12.48,97.1,97.1,0,0,1-12.06,12.85,101.48,101.48,0,0,1-15.64,11.7,79.91,79.91,0,0,1-19.67,8.29A85.89,85.89,0,0,1,406.78,75.85Zm57.7-64.42c-3,0-5.3-.59-6.87-1.78A5.53,5.53,0,0,1,455.25,5a9.73,9.73,0,0,1,1.68-5l1.05.1a3.38,3.38,0,0,0-.11,1q0,6,12,6a41,41,0,0,0,17.53-4.2l.52.94Q474.67,11.44,464.48,11.43Z" transform="translate(0 -0.03)"/><path class="cls-1" d="M560.91,75.43q-6.72,0-12.86-.36t-13.22-1.26A71.67,71.67,0,0,1,522,71.08a61.12,61.12,0,0,1-10.49-4.41A20,20,0,0,1,504.09,60a16.51,16.51,0,0,1-2.67-9.23,17.32,17.32,0,0,1,4.72-12,34.2,34.2,0,0,1,12.22-8.45A145.47,145.47,0,0,1,535,24.55q9.13-2.62,18.26-4.83t16.63-4.62a40.79,40.79,0,0,0,12.22-6c3.15-2.37,4.72-5.14,4.72-8.28h1.57a13.83,13.83,0,0,1-4.72,10.33,35,35,0,0,1-12.22,7.19,155.46,155.46,0,0,1-16.63,4.93q-9.14,2.2-18.26,4.35t-16.63,4.72a36.28,36.28,0,0,0-12.22,6.72,12.56,12.56,0,0,0-4.72,9.7q0,10.6,15.89,15.58t43.39,5q26.34,0,41.13-4.2T618.2,53.71q0-4.62-6.4-7.45l.53-.95a11.31,11.31,0,0,1,5.4,3.83,9.7,9.7,0,0,1,2,6q0,9.24-15.53,14.75T560.91,75.43Z" transform="translate(0 -0.03)"/><path class="cls-1" d="M686.81,75.43q-6.72,0-12.85-.36t-13.22-1.26a71.67,71.67,0,0,1-12.8-2.73,61.12,61.12,0,0,1-10.49-4.41A19.9,19.9,0,0,1,630,60a16.44,16.44,0,0,1-2.68-9.23,17.42,17.42,0,0,1,4.72-12,34.23,34.23,0,0,1,12.23-8.45,143.63,143.63,0,0,1,16.63-5.82q9.12-2.62,18.25-4.83t16.63-4.62a40.85,40.85,0,0,0,12.23-6c3.14-2.37,4.72-5.14,4.72-8.28h1.57a13.83,13.83,0,0,1-4.72,10.33,35,35,0,0,1-12.22,7.19,155.46,155.46,0,0,1-16.63,4.93q-9.13,2.2-18.26,4.35T645.84,32.3A36.11,36.11,0,0,0,633.62,39a12.56,12.56,0,0,0-4.72,9.7q0,10.61,15.89,15.58t43.39,5q26.33,0,41.12-4.2t14.8-11.43q0-4.62-6.4-7.45l.52-.95a11.29,11.29,0,0,1,5.41,3.83,9.7,9.7,0,0,1,2,6q0,9.24-15.53,14.75T686.81,75.43Z" transform="translate(0 -0.03)"/><path class="cls-1" d="M846.19,68.61a23.71,23.71,0,0,0,13.06-4.3,38.4,38.4,0,0,0,11.17-11.43l1.05.42a51.64,51.64,0,0,1-12,15.31q-7.29,6.3-13.27,6.3a7.86,7.86,0,0,1-5.93-2.2,8.32,8.32,0,0,1-2.15-6.09q0-6.71,10.28-20-26,11.66-50.31,20.25t-35.94,8.6c-5.17,0-7.76-1.32-7.76-4q0-4.83,10.65-13.33a120.52,120.52,0,0,1,26-15.37q15.38-6.87,26.7-6.87a28.6,28.6,0,0,1,11.44,2.2,24,24,0,0,1,7.24,4.3l2,2.21-.94.63c-.56-.56-1.35-1.28-2.36-2.15a29,29,0,0,0-6.67-3.47,28,28,0,0,0-10.91-2.15q-8.07,0-18.78,3.83a114.33,114.33,0,0,0-19.41,9,110.57,110.57,0,0,0-14.84,10.29c-4.1,3.42-6.14,6-6.14,7.65,0,1,1.19,1.47,3.56,1.47q11.34,0,36.83-7.34a476.25,476.25,0,0,0,51.62-18.26q8.5-10.8,10.39-14.69a11.66,11.66,0,0,0,1.36-4.93q0-8.8-24.76-8.81A175.68,175.68,0,0,0,799,20a164.6,164.6,0,0,0-35,11.64l-.42-1.05Q804.82,9.86,835.77,9.86q13.74,0,20.83,3.57t7.08,9.65A17.4,17.4,0,0,1,861,31.73a101.25,101.25,0,0,1-7.87,11.18q10.49-4.41,19.83-9l.52.94Q867.25,38,851.19,45.34q-3.68,4.62-5.56,7.14a44.72,44.72,0,0,0-3.72,6,12.9,12.9,0,0,0-1.81,5.76Q840.1,68.61,846.19,68.61Z" transform="translate(0 -0.03)"/><path class="cls-1" d="M919.74,76.48a70.83,70.83,0,0,1-14.38-1.41A53.85,53.85,0,0,1,893,71a23.67,23.67,0,0,1-8.87-7.09,16.17,16.17,0,0,1-3.3-10q0-8.4,7.45-16.58a67.47,67.47,0,0,1,18.94-14.17,121.07,121.07,0,0,1,25.86-9.65,111.63,111.63,0,0,1,27.7-3.67q12.38,0,18.47,3.09t6.08,8.24A10.54,10.54,0,0,1,983,27.54a23.16,23.16,0,0,1-5.77,5.4,61.11,61.11,0,0,1-8.08,4.46c-3.08,1.43-5.89,2.61-8.44,3.52s-5.13,1.71-7.71,2.41l-.32-1a78.53,78.53,0,0,0,8.71-3q4.83-1.94,9.91-4.57a37.17,37.17,0,0,0,8.56-5.87c2.3-2.17,3.46-4.23,3.46-6.19q0-6.51-19.52-6.51a142.64,142.64,0,0,0-37.66,5.15q-18.89,5.13-31.32,13.79T882.38,52.92q0,7.44,9,12.38t28.7,4.93a124.9,124.9,0,0,0,43.49-7.35,114.62,114.62,0,0,0,35.52-20.67l.94.74a121.1,121.1,0,0,1-38,24.29Q939.89,76.5,919.74,76.48Z" transform="translate(0 -0.03)"/></svg>