<svg id="Calque_1" data-name="Calque 1" xmlns="http://www.w3.org/2000/svg" viewBox="0 0 1000 865.21"><polygon points="950.49 800.23 950.49 779.96 979.34 779.96 979.34 756.71 286.04 756.71 286.04 737.86 308.01 737.86 308.01 717.73 365.63 717.73 365.63 696.87 700.1 696.87 700.1 673.62 689.82 673.62 689.82 652.75 626.8 652.75 626.8 633.18 827.45 633.18 827.45 612.31 887.97 612.31 887.97 589.07 350.71 589.07 350.71 570.59 523.99 570.59 523.99 547.34 511.39 547.34 511.39 526.48 452.69 526.48 452.69 504.51 404.27 504.51 404.27 484.94 773.97 484.94 773.97 465.17 905.38 465.17 905.38 441.92 796.77 441.92 796.77 422.34 974.31 422.34 974.31 399.1 875.53 399.1 875.53 378.23 0 378.23 0 399.1 0 401.48 0 419.96 0 422.34 0 441.92 0 443.21 0 461.69 0 465.17 0 483.65 0 484.94 0 504.51 0 506.9 0 526.48 0 527.76 0 547.34 0 549.72 0 568.2 0 570.59 0 589.07 0 591.45 0 609.93 0 612.31 0 629.7 0 633.18 0 652.75 0 652.94 0 673.62 0 676 0 694.48 0 696.87 0 714.62 0 717.73 0 735.66 0 737.86 0 756.71 0 758.91 0 778.27 0 779.96 0 800.23 0 801.52 0 821.1 0 823.48 0 841.96 0 844.35 0 865.21 734.59 865.21 734.59 841.96 661.29 841.96 661.29 823.48 984.98 823.48 984.98 800.23 950.49 800.23"/><path d="M737.22,253.7H722.64v19.36H108.42V252.59H107V234.91h630.2ZM862,377.58V360h24.58V336.72H796.72V319.11h18.77V295.86H777.58V274.13h49.94V254.28h2.64V234.91h1.49V211.66H745.79V191.23h-50.5V169.71H810.77V149.29h-63.3V127.77H642.09V106.11h45.45V85.69h-99V67H0v356H956.23V400.82H1000V377.58Z" transform="translate(0 -67.02)"/></svg>