<svg id="Calque_1" data-name="Calque 1" xmlns="http://www.w3.org/2000/svg" viewBox="0 0 1000 727.27"><defs><style>.cls-1{fill:#fff;}</style></defs><path class="cls-1" d="M187.79,695.73l-30.17,32.91c-5.14,5.49-13.72,12.69-26.4,21.94C118.54,759.5,108.94,764,102.08,764q-8.23,0-8.23-10.28c0-7.89,7.89-24.34,23.31-48.68,15.77-24.34,33.6-49.37,53.14-74.74,19.89-25.71,39.08-48.34,57.94-68.56s30.85-30.17,36.68-30.17a5.71,5.71,0,0,1,5.83,5.48c0,6.52-4.8,16.46-14.06,29.83-9.25,13-20.91,26.74-35,41.48-27.77,28.8-59.66,58.62-85.37,78.85q-5.15,8.24-11.31,19.54c-4.11,7.2-8.57,16.46-13.71,27.09-4.8,10.62-7.2,17.82-7.2,22.28,0,2.74,1.37,4.11,3.77,4.11,4.8,0,13-4.11,24.34-12s19.54-14.74,24.68-20.22l30.17-32.91Zm46.62-138.84c-14.74,16.11-31.2,35.65-49,59.31-17.49,23.65-33.6,46.62-48,68.9,16.8-13.37,35.31-30.85,56.22-52.79s38.74-42.17,53.14-60.34c14.74-18.51,21.94-30.17,21.94-35.31a3.43,3.43,0,0,0-3.77-3.77C259.78,532.89,249.49,540.78,234.41,556.89Z" transform="translate(0 -136.36)"/><path class="cls-1" d="M243.32,663.85q5.15,0,5.14,6.17c0,12.34-19.19,29.83-62.73,39.77-15.43,19.2-23,33.94-23,44.22,0,5.83,3.43,8.57,10.63,8.57,20.56,0,47-15.42,64.79-34.62l30.17-32.91.68.68-30.17,32.91C219.67,749.56,194,764,172,764c-10.62,0-15.77-5.82-15.77-17.14C156.24,710.82,219.32,663.85,243.32,663.85ZM218,677.9a230.92,230.92,0,0,0-30.51,30.17c40.8-9.94,60.34-26.74,60.34-38.05,0-3.09-1.37-4.8-4.46-4.8C236.81,665.22,228.58,669.34,218,677.9Z" transform="translate(0 -136.36)"/><path class="cls-1" d="M520.39,531.1c38.05-34.63,76.79-56.23,106.61-56.23,9.26,0,13.72,4.12,13.72,12.69,0,24.68-18.17,46.28-43.2,65.82a204.94,204.94,0,0,1-27.77,18.17c-20.91,12-39.08,20.57-61.36,30.51a209.79,209.79,0,0,1,30.17,15.77l-.69,1a241.74,241.74,0,0,0-31.2-15.77l-42.16,17.48-2.4,1c-15.77,24.34-27.09,47-33.94,68.22.34,0,2.05-.34,3.08-.34,28.11,0,51.08,5.49,69.25,16.8,23.31-16.46,41.14-27.08,65.82-38a203.22,203.22,0,0,1,81.6-16.8c49,0,74.05,17.48,74.05,43.19,0,68.91-105.25,114.51-192.33,114.51-4.45,0-10.63-.35-18.51-.69-28.8,32.91-83.65,55.2-159.41,55.2-77.48,0-158.39-39.43-158.39-122,0-37.37,16.46-70.62,49.37-99.08-22.29-9.25-35-27.42-35-48.33,0-43.54,53.14-98,165.24-98C426.79,496.13,475.82,507.78,520.39,531.1ZM244.07,643.2c-32.91,28.45-49.37,61-49.37,98.39,0,81.94,80.22,120.68,157,120.68,75.07,0,129.24-21.26,158-53.83-46.28-3.43-76.45-18.17-90.51-44.56-26.4,14.74-50.74,21.94-73.71,21.94-22.28,0-33.59-8.57-33.59-22.29,0-13.37,11-30.17,28.45-44.22,17.83-14.06,45.94-26.06,75.08-28.8,5.14-19.2,13.71-39.43,25.71-60.34l-23.65,9.6-8.92,15.09-1-.69,6.17-12.68L381.2,655.88a394.33,394.33,0,0,1-36,44.23,252.53,252.53,0,0,1-24.34,23.31c-15.43,12.69-36.68,23.31-53.48,23.31-4.46,0-6.86-1.71-6.86-5.48,0-20.91,39.43-49.37,117.94-85.71l9.59-12.34,35.66-53.82a257.5,257.5,0,0,1-32.91,24.68q-55,35-110,35C266.69,649,254.35,647,244.07,643.2Zm0-1.71c21.6-18.17,47.31-32.57,77.48-42.86,30.17-10.63,59.31-15.77,87.07-15.77,4.12,0,10.29.35,18.86.69l8.57-11.31c3.77-5.15,6.86-7.89,9.26-7.89a1.87,1.87,0,0,1,1.71,1.37l.34.34c-5.82,6.18-11.65,12-17.82,17.83a281.61,281.61,0,0,1,38,5.49,410.9,410.9,0,0,1,51.77-57.26c-44.57-23-93.25-34.62-146.39-34.62-42.85,0-80.91,8.57-105.93,21.94-38.74,19.88-57.94,48.34-57.94,74.74C209.1,615.09,221.1,632.92,244.07,641.49Zm182.72-56.57c-5.48-.34-11.65-.69-18.17-.69q-41.64,0-86.39,15.43C292.41,609.6,267,624,245.44,642.17c10.28,3.77,21.94,5.49,35.31,5.49,36,0,72.68-11.66,109.36-35A312.67,312.67,0,0,0,426.79,584.92ZM324,712.79a629.54,629.54,0,0,0,52.45-54.85C300,693.6,261.9,721.36,261.9,741.25c0,2.74,1.71,4.11,5.48,4.11C281.09,745.36,303,732,324,712.79Zm91.19-20.91c-28.8,2.74-56.23,14.74-73.71,28.8-17.48,13.71-28.11,30.17-28.11,42.85,0,13.37,10.28,20.91,32.22,20.91,23,0,47.31-7.19,73-21.94-5.15-10.62-7.89-23-7.89-37A131.23,131.23,0,0,1,415.14,691.88Zm4.8-62.74,4.8-1.37-6.17,10.29,23.65-9.94a391.09,391.09,0,0,1,24.68-37.37,295.87,295.87,0,0,0-38.39-5.83l-39.08,59-6.86,9.94,32.23-14.4ZM499.13,707c-17.83-10.63-40.45-16.12-67.88-16.12-1,0-2.74.35-3.77.35-4.8,15.42-7.2,29.48-7.2,41.82a78.39,78.39,0,0,0,4.11,26.05c11.66-6.85,28.46-18.16,50.06-34.28Zm1.37,1-25.37,18.17c-20.91,15.43-37.37,26.74-50.05,34.29,10.63,27.76,39.43,43.54,85.71,46.62,13.37-15.43,19.88-31.54,19.88-48.34C530.67,738.51,520,720.34,500.5,708ZM481,594.18c-6.86,9.25-12.68,17.82-17.48,25.36l.68-.34c17.49-7.2,31.2-13,40.46-17.14A241.16,241.16,0,0,0,481,594.18Zm67.54-44.91Q539.75,543.6,530,538a523.19,523.19,0,0,0-48,55.2,204.23,204.23,0,0,1,24.34,8.22c27.43-12.34,48.68-22.62,73-38C614.66,541,638,516,639.35,487.56c0-6.86-4.46-11.32-12.35-11.32-22.28,0-58.62,23.66-96,60.68,7.55,4.46,13.72,7.89,18.17,11Zm-36,257.8c5.49.34,11.31.69,17.14.69,86.05,0,191-44.23,191-113.14,0-25-24.35-41.82-72.68-41.82a197.82,197.82,0,0,0-80.22,16.8c-24.69,11-42.51,21.25-65.83,37.37C521.41,719.65,532,738.16,532,758.73Q532,783.93,512.5,807.07Z" transform="translate(0 -136.36)"/><path class="cls-1" d="M543.7,669.25c-13.71,15.09-21.6,23.66-35,36-12.68,12.34-24.34,20.23-33.6,24-3.77,1.37-6.51,2.06-8.57,2.06-5.14,0-7.54-3.09-7.54-9.26,0-37,61.71-89.13,110.05-89.13h5.48v1.37a27.36,27.36,0,0,0-4.79-.35c-16.12,0-37.37,11.66-55.2,27.09-26.06,22.62-49,52.11-49,63.42,0,3.09,1.37,4.46,3.77,4.46a14.22,14.22,0,0,0,5.82-1.37c16.12-5.15,40.12-28.8,72.68-64.11,5.15-7.2,10.63-14.74,16.46-22.29h13.37c-2.4,3.09-6.86,8.57-13,15.77s-11.31,13.72-15.77,19.2c-13.71,16.8-30.51,39.77-29.14,49.71,0,3.77,1.37,5.83,4.12,5.83,7.88,0,26-15.77,43.54-35l30.16-32.91.69.69L568,697.37c-18.17,19.54-36.68,35.31-44.91,35.31-3.09,0-4.8-2.4-4.8-6.86C518.33,713.82,526.9,695,543.7,669.25Z" transform="translate(0 -136.36)"/><path class="cls-1" d="M679.46,664.46l-30.17,32.91c-19.2,20.91-44.91,35.31-66.85,35.31-10.63,0-15.77-5.83-15.77-17.14,0-9.95,5.14-21.26,15.43-34.63a160.46,160.46,0,0,1,35.65-34.28c13.71-9.26,25-14.06,34.28-14.06,6.52,0,9.6,2.4,9.6,7.2,0,9.94-7.88,18.86-13,18.86-3.08,0-4.45-2.06-4.45-6.17,0-6.52,4.45-12.35,13.37-17.14a10,10,0,0,0-3.43-.69c-5.83,0-13.37,3.77-22.63,11a187.8,187.8,0,0,0-26.74,25.71,246.49,246.49,0,0,0-22.28,29.48c-6.17,10-9.26,17.15-9.26,21.94,0,5.83,3.43,8.58,10.63,8.58,20.57,0,47-15.43,64.79-34.63l30.17-32.91Zm-20.57-28.12c-9.26,4.46-13,11.32-13,16.46,0,3.08,1,4.46,2.74,4.46,4.12,0,11.66-8.23,11.66-17.49A4.4,4.4,0,0,0,658.89,636.34Z" transform="translate(0 -136.36)"/><path class="cls-1" d="M779.56,664.46,749.4,697.37c-9.95,11-14.06,15.42-23.32,23.65-9.25,7.89-17.14,11.31-24,11.31-3.77,0-5.49-1.71-5.49-4.79,0-5.15,3.77-14.75,11.66-28.8s15.42-27.43,23.31-39.77c7.88-12.68,12-19.54,12-21.26a.91.91,0,0,0-1-1c-4.46,0-14.4,5.82-29.83,17.82a485.89,485.89,0,0,0-47.65,43.89c-5.83,11.65-10.28,21.25-13.37,28.45H637.63c18.17-29.83,38.06-60,59.31-91.19,28.46-41.83,48.68-70.62,61.37-86.74,25.37-32.57,44.22-48.68,56.56-48.68a5.71,5.71,0,0,1,5.83,5.49c0,6.51-4.45,15.77-13.37,28.45-8.57,12.69-19.88,26.06-33.25,40.11-27.08,28.46-57.6,56.91-83.31,77.82-7.88,12.69-15.77,26.4-23.65,41.83q26.22-26.24,48.34-43.2c14.74-11.31,25.37-16.8,31.54-16.8q6.16,0,6.17,5.15c0,4.11-3.09,11-8.92,20.22s-12,18.17-18.85,27.09c-6.86,8.57-13,17.14-18.86,25.37S698,725.14,698,727.54s1.37,3.77,4.46,3.77c4.46,0,9.26-2.06,15.08-5.83,12-7.89,17.83-14.74,31.2-28.8l30.17-32.91Zm-87.76-14.4c16.8-13.72,35-31.2,55.2-52.46s37.36-40.79,51.08-58.28q20.56-26.73,20.57-33.94a3.43,3.43,0,0,0-3.78-3.77c-9.59,0-24.68,12-38.73,28.46-7.2,7.88-15.09,18.17-24.34,30.85-18.17,24.69-31.54,44.57-49.71,73Z" transform="translate(0 -136.36)"/><path class="cls-1" d="M749.05,717.25c0-14.06,11.66-36.68,27.77-54.51,16.11-18.17,38.4-33.25,56.57-33.25,7.2,0,10.62,3.43,10.62,10.62q0,12.87-14.39,36a180.19,180.19,0,0,1-31.89,39.08c9.6,0,23.32-6.85,34.63-16.11,11.31-9.6,19.2-16.46,25-23l11.32-12.34.68.69L859.1,675.77c-5.83,6.51-13.71,13.71-26.06,23.65-12,9.94-26,17.14-36,17.14h-1c-12,11-22.29,16.46-30.17,16.46C754.54,733,749.05,727.88,749.05,717.25Zm45.6-.69q-11.32-1.53-11.32-15.42c0-9.26,6.52-21.94,19.89-37.37s25.37-26.06,35.65-31.88a7.27,7.27,0,0,0-4.11-1c-7.2,0-15.77,3.77-25,11a127.88,127.88,0,0,0-24.68,26c-14.74,20.23-26.4,43.2-26.4,55.2,0,5.83,2.4,8.57,7.2,8.57C773.73,731.65,783.33,726.51,794.65,716.56Zm1.37-1.37c11.66-10.62,22.28-24,31.88-39.42,9.6-15.77,14.4-27.77,14.4-36.34,0-3.09-.69-5.14-2.06-6.51-5.82,3.08-13.37,8.57-21.94,16.79-8.57,7.89-16.11,17.14-23.31,27.09-6.86,9.94-10.28,18.17-10.28,24.34C784.71,710.39,788.48,714.85,796,715.19Z" transform="translate(0 -136.36)"/><path class="cls-1" d="M853.61,687.77a383,383,0,0,1,31.54-46.63h15.77c-16.11,16.12-34.28,35.66-49.36,58.63-7.2,11.31-11,20.22-11,26.05,0,3.77,1.37,5.83,4.45,5.83,4.46,0,11-3.43,20.23-10.63a217.12,217.12,0,0,0,26.4-24.34l30.17-32.91.68.69-30.17,32.91a226.31,226.31,0,0,1-27.08,24.68c-9.26,7.2-16.11,10.63-20.91,10.63-3.43,0-5.14-2.4-5.14-6.86Q839.22,712.46,853.61,687.77Zm57.94-72h-2.74c.69-6.17,1-16.45,13.37-16.79a38.07,38.07,0,0,1,6.17.68Z" transform="translate(0 -136.36)"/><path class="cls-1" d="M921.84,663.77c7.2-7.89,12-15.43,13.71-22.28-6.86-3.09-10.29-6.52-10.29-10.63,0-3.09,1.72-4.46,4.8-4.46,7.55,0,9.26,5.83,6.52,14.4q11.82,5.15,31.88,5.14c3.09,0,4.8,1,4.8,2.75-1.71,3.08-7.54,10.62-16.8,23s-17.14,24-24,34.63-10.28,17.83-10.28,21.94c0,2.06,1,3.09,3.43,3.09,3.77,0,9.94-3.43,18.17-10.29a276.37,276.37,0,0,0,25.37-24.34l30.16-32.91.69.69-30.17,32.91c-17.83,19.19-36.68,35.31-44.91,35.31-4.11,0-6.86-3.43-6.86-9.95,0-15.42,15.43-41.82,51.43-75.76h-1.37a94.13,94.13,0,0,1-31.88-5.14,56.8,56.8,0,0,1-13.72,22.63l-11,12-.68-.68Z" transform="translate(0 -136.36)"/><path class="cls-1" d="M363.14,440.89c-17.63,19.39-34.38,34.37-50.24,45.39-40.11,27.76-86.82,41.87-140.59,41.87C56,528.15,5.73,484.52,5.73,436c0-57.29,73.6-121.63,193.91-121.63,5.73,0,11,.44,15.86.88,7.05-41,34.38-87.26,68.31-120.75a230.72,230.72,0,0,1,57.29-41.87c21.16-11,41.43-16.31,60.82-16.31,30.41,0,56,15,59.94,47.16a148.2,148.2,0,0,1,27.76-2.65c37,0,74.48,20.28,76.24,61.26a207.34,207.34,0,0,1,22.48-5.73v1.76c-7.93,1.77-15.43,3.53-22.48,5.73,0,.45.44,2.21.44,2.65q0,39-29.08,72.71c-19.39,22.48-41.87,37.46-67,44.07,10.13,7.5,16.31,19.4,18.95,35.7a137.43,137.43,0,0,1,15-.88c46.28,0,71.4,27.32,71.4,64.78,0,23.36-9.7,49.36-29.53,72.72-27.76,35.25-80.21,62.58-149,62.58a185,185,0,0,1-51.56-7.49c-35.26,30.4-85.5,49.8-130.89,49.8C124.72,641.85,22.48,587.64,0,517.13l1.76-.88C24.24,585.88,125.6,640.08,214.62,638.76c44.07,0,93.87-19,129.13-48.92A173.19,173.19,0,0,1,288.22,559l1.32-1.33a175,175,0,0,0,56,30.85c22.48-19.83,36.14-41,41.87-64.34-11-.44-16.31-6.17-16.31-17.19s4-23.35,11.9-37A90.08,90.08,0,0,0,363.14,440.89Zm-73.6-38.78c-11.46,17.62-30,32.61-55.53,44.51-25.12,11.9-54.64,17.63-88.58,17.63-41,0-61.7-11-61.7-27.33,0-13.66,14.55-29.08,37.9-41.42,23.36-12.78,60.38-22,99.16-22,26,0,50.68,4.41,74,13.66a46.17,46.17,0,0,0,3.08-16.3c0-28.21-26.88-50.24-81.08-53.77a169.61,169.61,0,0,0-1.33,19.39h-1.76a138.82,138.82,0,0,1,1.32-19.39c-4.85-.44-10.13-.88-15.42-.88C79.77,316.17,7.49,379.63,7.49,436c0,24.68,12.78,45.83,38.78,63s70.08,27.32,126,27.32c53.33,0,100-14.1,139.71-41.86,17.18-11.9,33.49-26.89,49.8-44.95C343.75,422.38,320,410,289.54,402.11Zm-167,7.93c-22.48,8.81-35.26,19.39-35.26,30,0,12.78,20.71,22.47,58.17,22.47,33.5,0,62.58-5.73,87.7-17.18,25.12-11.9,43.63-26,54.65-43.19a239.25,239.25,0,0,0-58.17-7.49C184.21,394.62,145.43,400.78,122.52,410ZM365.34,435.6q17.85-20.49,45-56.85,35-46.94,52.89-66.11c31.29-34.81,64.34-57.73,98.72-69.19.44-.44,1.32-.44,2.2-.88-1.76-32.17-29.53-52-64.78-52a151.54,151.54,0,0,0-36.58,4.85c-.44,15-5.29,31.73-13.66,50.68a243,243,0,0,1-31.29,52.44,185.18,185.18,0,0,1-44.07,41c-16.31,11-32.18,16.3-47.16,16.3-14.1,0-20.71-8.37-20.71-22.47-.44-42.75,63.9-132.65,154.24-149.4-4-31.73-28.64-45.83-58.17-45.83-38.78,0-83.29,23.79-117.23,57.73-33.49,33.49-60.37,78.88-67.42,119.43,54.2,4,82.41,26,82.41,55.53A47.09,47.09,0,0,1,296.59,388C328.76,402.55,349.48,417.53,365.34,435.6Zm95.19-239.74c-38.78,10.57-79.76,38.34-106.21,66.54s-44.51,58.18-44.51,76.25c0,10.13,5.73,15.42,16.75,15.42C388.26,354.07,458.77,255.79,460.53,195.86Zm29.09,205.81a43.55,43.55,0,0,1,.44,6.61c0,47.15-53.76,116.34-100.48,115.9h-.44c-5.29,23.36-19.39,45-41.87,64.78a165.94,165.94,0,0,0,49.8,7.5c44.07,0,85.06-12.34,111.94-30.41,42.75-28.21,64.78-68.31,64.78-103.13,0-37-24.23-63-69.63-63A64.23,64.23,0,0,0,489.62,401.67ZM384.73,467.33c19.83-33.93,56.85-62.58,102.69-67.87-2.65-17.19-9.26-29.08-19.39-35.69a86.37,86.37,0,0,1-20.72,2.64c-3.08-.88-4.85-2.2-4.85-4,0-2.2,4-4.84,11.46-4.84A24.27,24.27,0,0,1,468,362c48.91-13.22,96.51-62.58,96.51-115.46,0-.44-.44-1.76-.44-2.2-30,10.13-52.89,25.12-75.8,46.27-15.87,14.54-25.56,24.24-41,43.19l-18.07,22.47-17.18,23.36c-18.51,25.12-33.5,44.07-45.4,57.29A117.7,117.7,0,0,1,384.73,467.33Zm2.65,16.31c-12.78,22.47-13.22,37.46.44,38.78a79,79,0,0,0-.44-38.78Zm2.2,38.78c14.54,0,30-6.17,45.39-18.95a165.31,165.31,0,0,0,38.34-45.4c10.14-18.06,15-34.37,15-49.79a38.75,38.75,0,0,0-.44-6.17c-18.95,4-37.46,14.1-56,29.52C413.82,447.06,399.28,463.8,388.7,481a87.55,87.55,0,0,1,3.08,23.36A81.25,81.25,0,0,1,389.58,522.42Zm76.24-160a21.84,21.84,0,0,0-11.9-3.08c-6.61,0-9.69.88-9.69,3.08,0,.44,1.32,1.33,4,2.21A90.94,90.94,0,0,0,465.82,362.44Z" transform="translate(0 -136.36)"/><path class="cls-1" d="M504.17,482.31c0-18.06,15-47.15,35.69-70.07,20.72-23.35,49.36-42.75,72.72-42.75,9.25,0,13.66,4.41,13.66,13.67q0,16.51-18.51,46.27a231.81,231.81,0,0,1-41,50.24c12.34,0,30-8.81,44.51-20.71,14.54-12.34,24.68-21.16,32.17-29.53L658,413.57l.88.88L645.63,429c-7.49,8.37-17.63,17.63-33.49,30.41-15.42,12.78-33.49,22-46.28,22h-1.32c-15.42,14.1-28.64,21.16-38.78,21.16C511.22,502.59,504.17,496,504.17,482.31Zm58.61-.88q-14.55-2-14.54-19.83c0-11.9,8.37-28.2,25.56-48s32.61-33.5,45.83-41a9.4,9.4,0,0,0-5.29-1.32c-9.25,0-20.27,4.85-32.17,14.1a164.36,164.36,0,0,0-31.73,33.49c-19,26-33.93,55.53-33.93,71,0,7.49,3.08,11,9.25,11C535.9,500.82,548.24,494.21,562.78,481.43Zm1.76-1.76c15-13.66,28.65-30.85,41-50.68,12.34-20.27,18.51-35.7,18.51-46.72,0-4-.88-6.61-2.65-8.37-7.49,4-17.18,11-28.2,21.6-11,10.13-20.71,22-30,34.81C554.41,443.09,550,453.67,550,461.6,550,473.5,554.85,479.23,564.54,479.67Z" transform="translate(0 -136.36)"/><path class="cls-1" d="M658,413.57c9.26-10.14,15.43-19.84,17.63-28.65-8.81-4-13.22-8.37-13.22-13.66,0-4,2.2-5.73,6.17-5.73,9.69,0,11.9,7.49,8.37,18.51q15.21,6.6,41,6.61c4,0,6.17,1.32,6.17,3.52-2.21,4-9.7,13.67-21.6,29.53s-22,30.85-30.85,44.51-13.22,22.92-13.22,28.21c0,2.64,1.32,4,4.41,4,4.85,0,12.78-4.41,23.36-13.22a354.72,354.72,0,0,0,32.61-31.29l38.78-42.3.88.88-38.78,42.3c-22.92,24.68-47.15,45.4-57.73,45.4-5.29,0-8.82-4.41-8.82-12.78,0-19.84,19.84-53.77,66.11-97.4h-1.76q-22.49,0-41-6.61c-3.08,10.14-8.81,19.83-17.63,29.09l-14.1,15.42-.88-.88Z" transform="translate(0 -136.36)"/><path class="cls-1" d="M738.18,444.41a491.33,491.33,0,0,1,40.55-59.93H799c-20.72,20.71-44.07,45.83-63.46,75.36-9.26,14.54-14.11,26-14.11,33.49,0,4.85,1.77,7.49,5.73,7.49,5.73,0,14.11-4.4,26-13.66a279.51,279.51,0,0,0,33.94-31.29l38.78-42.3.88.88L788,456.75a290.31,290.31,0,0,1-34.82,31.73c-11.89,9.26-20.71,13.67-26.88,13.67-4.41,0-6.61-3.09-6.61-8.82Q719.67,476.14,738.18,444.41Zm74.48-92.54h-3.53c.89-7.94,1.33-21.16,17.19-21.6a48.48,48.48,0,0,1,7.93.88Z" transform="translate(0 -136.36)"/><path class="cls-1" d="M812.66,429.87l-.88-.88,14.1-15.42a437,437,0,0,0,37.46-48l4.41-8.37,7.49,2.2c-30,28.2-4,111.06-50.68,136.17,21.59-7.49,41-20.71,58.61-39.66L922,413.57l.89.88-38.79,42.3C855,488,822.8,503.91,787.1,503.91c-17.63,0-28.21-9.7-28.21-20.27,0-12.34,5.73-22.48,15-22.48,4,0,7,2.64,7,6.17,0,7.49-7.49,15.87-20.27,16.31,0,9.25,9.69,18.51,26,18.51,23.8,0,38.34-20.72,48.92-48a255.82,255.82,0,0,0,9.25-27.77c4.85-17.18,11-41.86,15.87-53.76-11,14.54-22,28.64-33.94,41.87Z" transform="translate(0 -136.36)"/></svg>