<svg id="Calque_1" data-name="Calque 1" xmlns="http://www.w3.org/2000/svg" viewBox="0 0 1000 433.99"><path d="M0,285.18H130v7.62h-49V478.6H123c17.68,0,51.41-.27,65.28-79.44h6.53l-3,85.69H0v-7.61H47.06V292.8H0Z" transform="translate(0 -283.01)"/><path d="M338.68,442.15c-1.09,9.79-15.23,47.06-58.48,47.06-47.88,0-65.29-45.43-65.29-76.17,0-37.81,26.11-74,62.56-74,35.37,0,59,29.11,61.48,71.28H245.1V423.1c0,35.09,12,54.41,38.63,54.41,18.77,0,38.63-13.06,42.71-35.36Zm-30.47-57.4c0-14.42-1.63-40.26-30.46-40.26-29.38,0-32.37,24.75-32.37,55.76h62.83Z" transform="translate(0 -283.01)"/><path d="M560.12,431c-1.09,26.12-16,57.13-55.49,57.13-37.55,0-66.38-39.72-66.38-72.63,0-35.37,27.75-76.45,68.28-76.45,28.56,0,52,17.14,52,41.35,0,14.69-11.7,20.13-18.77,20.13a18,18,0,0,1-18-17.68c0-18.77,17.41-20.67,17.41-25.3,0-3-10.33-12.51-28.83-12.51-40.53,0-41.9,42.16-41.9,70.46v5.71c0,39.72,18.23,57.67,38.9,57.67,13.88,0,42.17-9,44.07-47.88Z" transform="translate(0 -283.01)"/><path d="M627.58,283V477h22.31v7.88h-74V477h25.57V313.75c0-12-5.17-19.86-24.75-20.68v-7.89L623,283Z" transform="translate(0 -283.01)"/><path d="M781.29,439.42c-9,41.9-40,47.61-51.15,47.61-20.13,0-41.62-12.79-41.62-40V367.88C688.52,354,673.83,354,667.3,354v-8.44h47.34V450c0,21.22,14.41,26.94,24.48,26.94,19.31,0,40.26-19.05,40.26-72.09v-37c0-9.25-5.44-13.87-19.31-13.87H747.55v-8.44h58V453c0,10.88,3.26,20.94,22.85,22v8.16l-47.06,1.63Z" transform="translate(0 -283.01)"/><path d="M866.43,488.66v-176c0-15-12.24-19-25.57-19v-8.44L892.55,283V370.6c7.89-22,25.84-31.56,43-31.56,32.1,0,64.47,32.38,64.47,74,0,42.71-32.37,74.81-68.55,74.81-22,0-38.63-14.42-46.52-31.83-6.26,8.43-10.34,22-11.42,32.64Zm42.44-132.48c-14.42,14.15-15.78,32.1-15.78,52.51,0,38.62,2.45,53,13.06,63.65,6.53,6.53,14.15,9.52,23.39,9.52,39.18,0,39.18-47.06,39.18-66.65,0-20.13,0-46-13.88-60.11-6.25-6.26-12.78-9.8-22.3-9.8S915.94,348.84,908.87,356.18Z" transform="translate(0 -283.01)"/><path d="M134.93,510.79V672.38c0,19,3.26,29.38,26.11,29.38v8.43l-52,1.36V675.1c-7.89,24.48-22,39.44-43.25,39.44-28.83,0-62.57-31-62.57-75.35,0-38.08,32.38-73.45,63.11-73.45,18.5,0,34.82,12.79,42.71,34.82V545.61C109.08,520,94.39,520,75.62,520v-8.16ZM46.79,700.67a28.64,28.64,0,0,0,19.58,7.89c26.94,0,42.71-32.64,42.71-75.62,0-32.1-16-60.94-41.62-60.94a28,28,0,0,0-20.13,8.43c-10.88,10.88-13,32.38-13,59C34.28,672.11,35.91,689.52,46.79,700.67Z" transform="translate(0 -283.01)"/><path d="M301.68,668.84c-1.08,9.8-15.23,47.07-58.48,47.07-47.88,0-65.29-45.43-65.29-76.17,0-37.82,26.12-74,62.57-74,35.36,0,59,29.11,61.48,71.28H208.11V649.8c0,35.09,12,54.41,38.62,54.41,18.77,0,38.63-13.06,42.71-35.37Zm-30.46-57.39c0-14.42-1.64-40.27-30.47-40.27-29.38,0-32.37,24.76-32.37,55.77h62.84Z" transform="translate(0 -283.01)"/><path d="M326.17,653.88c7.34,29.11,25,56,54.13,56,13.88,0,31-7.62,31-26.66,0-1.63,0-8.43-6.53-15-14.69-14.69-55.23-12.24-73.18-29.92-7.62-7.89-10.88-20.13-10.88-28.84,0-23.39,17.95-42.44,41.35-42.44,13.87,0,26.66,5.72,39.71,22.31a70.73,70.73,0,0,0,10.88-21.22h4.63V624h-5.44c-16.87-44.89-37-50.87-50.33-50.87-14.69,0-27.47,10.88-27.47,24.75a22.43,22.43,0,0,0,6.8,15.51c14.15,14.14,51.41,9,71.54,29.11,13.06,13.33,13.06,24.21,13.06,31,0,31-25.84,42.44-44.07,42.44s-32.64-9.53-43.52-20.41a76,76,0,0,0-11.16,20.13H321V653.88Z" transform="translate(0 -283.01)"/><path d="M555,519.77c10.61,6.53,20.67,8.43,34.82,8.43,21,0,39.72-9.52,43-9.52,1.09,0,2.18.55,2.18,1.36,0,2.18-12.52,31.56-60.12,31.56-5.44,0-11.43-.27-15.24-1.09l-4.62,56c9.52-10.34,22.31-18.23,41.62-18.23,35.09,0,60.66,29.93,60.66,61.75,0,34.82-31,66.92-71.27,66.92-38.9,0-50.87-26.38-50.87-39.17,0-14.14,10.34-21.76,20.13-21.76,11.7,0,19.86,8.7,19.86,19a18.1,18.1,0,0,1-9.25,15.51c-4.62,2.44-9.52,2.17-9.52,6.8,0,6.53,11.7,12.51,27.2,12.51,13.61,0,24.76-6,30.47-11.7,8.16-8.16,12.79-21.22,12.79-44.61s-2.72-58.21-35.91-58.21c-7.62,0-25.3,3.26-34.55,20.94-4.08,7.07-2.18,20.13-7.34,20.13-2.18,0-3-1.09-3-5.71,0-4.35,1.09-13.87,1.36-18.23Z" transform="translate(0 -283.01)"/></svg>