<svg id="Calque_1" data-name="Calque 1" xmlns="http://www.w3.org/2000/svg" viewBox="0 0 1000 424.2"><defs><style>.cls-1{fill:#fff;}</style></defs><path class="cls-1" d="M.21,711.79a5.68,5.68,0,0,1-.2-1Q0,499.61,0,288.31A9.52,9.52,0,0,1,1.43,288c.72,0,1.45,0,2.18,0H396.73c1.11,0,2.26-.25,3.39.35a12.57,12.57,0,0,1,.21,1.39c0,.81,0,1.61,0,2.42q0,168.33,0,336.66a111.84,111.84,0,0,1-.63,12.8,76.58,76.58,0,0,1-14.17,36.87c-9.31,12.77-21.14,22.33-36,28a82.53,82.53,0,0,1-19.47,4.73,115,115,0,0,1-14,.82H3.6A13.88,13.88,0,0,1,.21,711.79Zm195.28-80.12c1.55,0,3,0,4.44.05a3,3,0,0,0,2.79-1.61A18,18,0,0,0,204,627a18.34,18.34,0,0,0,.47-5.53q0-125.07,0-250.16c0-.72,0-1.45,0-2.18a8.8,8.8,0,0,0-.29-1.3,29.35,29.35,0,0,0-8.8.18,4.85,4.85,0,0,0-.16.89q0,130.89,0,261.78A4.77,4.77,0,0,0,195.49,631.67Z" transform="translate(0 -287.9)"/><path class="cls-1" d="M609.16,525.07c3.37.27,6.1.12,8.82.15s5.33,0,8,0h8.32a11.58,11.58,0,0,1,.29,1.48c0,.64,0,1.29,0,1.93q0,49.77,0,99.54a110.78,110.78,0,0,1-2,21.66c-3.1,15.61-9.95,29.25-21.32,40.5a70,70,0,0,1-28.22,16.85,93.84,93.84,0,0,1-18.91,4,146.51,146.51,0,0,1-16,.82H412.36a12.37,12.37,0,0,1-2.85-.1c-.28-.24-.35-.28-.39-.35a.44.44,0,0,1-.06-.23q0-210.69-.08-421.39c0-.48,0-1,.08-1.57a7.48,7.48,0,0,1,1.33-.35,17.9,17.9,0,0,1,1.94,0h219a6.62,6.62,0,0,1,3.09.28,6.15,6.15,0,0,1,.22,2.65q0,16.35,0,32.69,0,70.11,0,140.23a91.21,91.21,0,0,1-1.94,19.71,78.23,78.23,0,0,1-21.23,39.27Zm-91.59-163.2a9.77,9.77,0,0,0-.29,3.39q0,63.93,0,127.86c0,.65,0,1.3,0,1.94,0,.46.13.92.22,1.53,1.39,0,2.66.06,3.93.05a4.37,4.37,0,0,0,4.25-3,7.75,7.75,0,0,0,.55-2.1c.16-1.6.29-3.22.29-4.83q0-60.66,0-121.33c0-.72,0-1.45,0-2.18a8.18,8.18,0,0,0-.32-1.28C523.34,361.78,520.54,361.81,517.57,361.87Zm0,208.2a9.42,9.42,0,0,0-.25,3.09q0,30.6,0,61.19c0,.56,0,1.13,0,1.69a13.06,13.06,0,0,0,.34,1.48c1.29,0,2.5,0,3.69,0a4.1,4.1,0,0,0,3.84-2.5,12.29,12.29,0,0,0,1-3.44,42.85,42.85,0,0,0,.34-5.55q0-26.24,0-52.48c0-.73,0-1.45,0-2.18a8.85,8.85,0,0,0-.31-1.27C523.35,570,520.54,570,517.53,570.07Z" transform="translate(0 -287.9)"/><path class="cls-1" d="M728.8,358.52a9.38,9.38,0,0,0-1.26-.17h-7.36a8.77,8.77,0,0,0-.35,1.44c-.05,1,0,1.94,0,2.91q0,172.8,0,345.62a13.22,13.22,0,0,1-.18,3.46c-.52.07-1,.16-1.44.18s-1.13,0-1.7,0H643.72a9.77,9.77,0,0,1-.31-1.45c0-.73,0-1.46,0-2.18V288.28a12.82,12.82,0,0,1,1.5-.32c.64,0,1.29,0,1.93,0H802.09a8.23,8.23,0,0,1,3.23.27c.06.46.17.92.19,1.38,0,.73,0,1.46,0,2.18V711.59a13.85,13.85,0,0,1-1.48.35,11.83,11.83,0,0,1-1.46,0H732.1c-.88,0-1.75-.05-2.76-.09a14.11,14.11,0,0,1-.23-1.47c0-1,0-1.94,0-2.91V362.84c0-1,0-1.94,0-2.91A9.43,9.43,0,0,0,728.8,358.52Z" transform="translate(0 -287.9)"/><path class="cls-1" d="M915.72,622.82c4.38.42,8.63-.1,12.9.3a5.8,5.8,0,0,1,.26,1c0,.72,0,1.45,0,2.17q0,41.19,0,82.36a5.84,5.84,0,0,1-.39,3.16c-.46,0-.93.12-1.4.14-11.11.27-47.47.12-50-.23a11.91,11.91,0,0,1-.22-1.31c0-.8,0-1.61,0-2.42q0-25.92,0-51.83c0-1,.24-2.1-.32-3a40.91,40.91,0,0,0-9.32,0,10.51,10.51,0,0,0-.18,1.32c0,.81,0,1.61,0,2.42q0,25.92,0,51.84a9.18,9.18,0,0,1-.22,3c-.45.08-.9.2-1.36.24s-1.13,0-1.69,0H818a7.77,7.77,0,0,1-2.93-.24,10.48,10.48,0,0,1-.23-1.42c0-.88,0-1.77,0-2.66V292.23c0-1.28.05-2.57.08-3.94a7.15,7.15,0,0,1,2.92-.35H864a6.73,6.73,0,0,1,2.74.26,10.41,10.41,0,0,1,.22,1.36c0,.89,0,1.78,0,2.67v308.1a15.31,15.31,0,0,0,.2,3.72c.77.06,1.47.16,2.17.16a40.34,40.34,0,0,0,4.12-.09,2.17,2.17,0,0,0,1.37-.87,8.65,8.65,0,0,0,1.1-2.39,10,10,0,0,0,.25-2.4c0-1.05,0-2.1,0-3.15V291.82a14,14,0,0,1,.2-3.59,5,5,0,0,1,1-.26l49.9,0a2.55,2.55,0,0,1,.73.27,11.17,11.17,0,0,1,.17,1.16c0,.81,0,1.62,0,2.43q0,146.89,0,293.81a62.41,62.41,0,0,1-1,12.28,53.47,53.47,0,0,1-10.16,22.52c-.44.58-.86,1.17-1.28,1.75C915.81,622.28,915.82,622.38,915.72,622.82Z" transform="translate(0 -287.9)"/><path class="cls-1" d="M991.17,662.5a25.08,25.08,0,0,0,4.51.2c1.29,0,2.57,0,4,0a12.49,12.49,0,0,1,.32,1.45c0,.64,0,1.29,0,1.93v42.63c0,1,0,1.92,0,3a6.77,6.77,0,0,1-1.25.27q-11.62,0-23.26,0a7.91,7.91,0,0,1-.9-.11c-.68-.72-.48-1.57-.49-2.35,0-4.6,0-9.2,0-13.81,0-5,0-10,0-15,0-.8,0-1.59-.09-2.48a6.61,6.61,0,0,0-1.45-.32c-2.64,0-5.29-.26-8,.19a7.06,7.06,0,0,0-.3,3q0,13.93,0,27.85a5.88,5.88,0,0,1-.35,2.95c-.45.05-.92.13-1.38.14-7.82.22-21.86.1-24.08-.21a9.74,9.74,0,0,1-.28-1.31c0-.64,0-1.29,0-1.93q0-208.51,0-417a9.64,9.64,0,0,1,.22-3.22,11.35,11.35,0,0,1,1.34-.28,9.74,9.74,0,0,1,1.21,0h55.7a4.41,4.41,0,0,1,2.69.37c0,.42.13.89.13,1.36,0,1.37,0,2.74,0,4.11q0,173.64,0,347.29a33.73,33.73,0,0,1-.65,7.7,26.5,26.5,0,0,1-6.12,11.93C992.25,661.18,991.86,661.68,991.17,662.5Zm-26.65-9.1a10.29,10.29,0,0,0,1.23.19c1.61,0,3.23,0,4.84,0,2,0,2.73-.74,2.86-2.77,0-.81,0-1.62,0-2.42V315.85c0-.73,0-1.46,0-2.18a12,12,0,0,0-.21-1.31,24.89,24.89,0,0,0-8.79.11,11.31,11.31,0,0,0-.21,3.54V649.53c0,.8,0,1.61,0,2.42A10.26,10.26,0,0,0,964.52,653.4Z" transform="translate(0 -287.9)"/></svg>