<svg id="Calque_1" data-name="Calque 1" xmlns="http://www.w3.org/2000/svg" viewBox="0 0 1000 551.24"><rect x="66.15" y="476.65" width="39.43" height="84.35" rx="1.7" transform="translate(-432.96 380.31) rotate(-90)"/><rect x="66.15" y="433.16" width="39.43" height="84.35" rx="1.7" transform="translate(-389.47 336.82) rotate(-90)"/><rect x="66.15" y="389.67" width="39.43" height="84.35" rx="1.7" transform="translate(-345.98 293.33) rotate(-90)"/><rect y="454.18" width="39.43" height="84.35" rx="1.7" transform="translate(39.43 768.34) rotate(180)"/><rect x="938.11" y="288.9" width="39.43" height="84.35" rx="1.7" transform="translate(626.75 1064.52) rotate(-90)"/><rect x="938.11" y="245.41" width="39.43" height="84.35" rx="1.7" transform="translate(670.24 1021.03) rotate(-90)"/><rect x="938.11" y="201.92" width="39.43" height="84.35" rx="1.7" transform="translate(713.73 977.54) rotate(-90)"/><rect x="938.11" y="332.58" width="39.43" height="84.35" rx="1.7" transform="translate(583.06 1108.21) rotate(-90)"/><rect x="871.96" y="266.43" width="39.43" height="84.35" rx="1.7" transform="translate(1783.34 392.84) rotate(180)"/><rect x="938.11" y="670.04" width="39.43" height="84.35" rx="1.7" transform="translate(245.6 1445.66) rotate(-90)"/><rect x="938.11" y="626.55" width="39.43" height="84.35" rx="1.7" transform="translate(289.09 1402.17) rotate(-90)"/><rect x="938.11" y="583.06" width="39.43" height="84.35" rx="1.7" transform="translate(332.58 1358.68) rotate(-90)"/><rect x="938.11" y="713.73" width="39.43" height="84.35" rx="1.7" transform="translate(201.92 1489.35) rotate(-90)"/><rect x="871.96" y="647.58" width="39.43" height="84.35" rx="1.7" transform="translate(1783.34 1155.13) rotate(180)"/><rect x="698.23" y="424.64" width="84.35" height="39.43" rx="1.7"/><rect x="698.23" y="381.15" width="84.35" height="39.43" rx="1.7"/><rect x="654.54" y="423.2" width="39.43" height="84.35" rx="1.7"/><path d="M824.58,647.58h-36a1.69,1.69,0,0,0-1.69,1.69V690.8a1.71,1.71,0,0,1-1.71,1.7H708.23a.58.58,0,0,0-.26,1.1l78.88,38.33h37.73a1.69,1.69,0,0,0,1.69-1.69v-81A1.69,1.69,0,0,0,824.58,647.58Z" transform="translate(0 -224.38)"/><path d="M699.42,693.74a.85.85,0,0,0-1.19.78V730a1.89,1.89,0,0,0,1.89,1.89h74.47a.86.86,0,0,0,.37-1.63Z" transform="translate(0 -224.38)"/><rect x="546.34" y="670.04" width="39.43" height="84.35" rx="1.7" transform="translate(-146.16 1053.9) rotate(-90)"/><rect x="546.34" y="626.55" width="39.43" height="84.35" rx="1.7" transform="translate(-102.67 1010.41) rotate(-90)"/><rect x="546.34" y="583.06" width="39.43" height="84.35" rx="1.7" transform="translate(-59.18 966.92) rotate(-90)"/><rect x="546.34" y="713.73" width="39.43" height="84.35" rx="1.7" transform="translate(-189.85 1097.59) rotate(-90)"/><rect x="480.19" y="647.58" width="39.43" height="84.35" rx="1.7" transform="translate(999.81 1155.13) rotate(180)"/><path d="M259.11,692.5h-85a1.7,1.7,0,0,1-1.7-1.7V650.7a1.69,1.69,0,0,0-1.68-1.69H134.67A1.69,1.69,0,0,0,133,650.7v79.55a1.68,1.68,0,0,0,1.68,1.68H259.11A1.93,1.93,0,0,0,261,730V694.43A1.94,1.94,0,0,0,259.11,692.5Z" transform="translate(0 -224.38)"/><rect x="176.68" y="381.15" width="84.35" height="39.43" rx="1.7"/><rect x="176.68" y="511.82" width="84.35" height="39.43" rx="1.7"/><path d="M303,649H178.65a2,2,0,0,0-2,2v35.5a2,2,0,0,0,2,2h84.94a1.72,1.72,0,0,1,1.71,1.71v40.1a1.68,1.68,0,0,0,1.68,1.68H303a1.68,1.68,0,0,0,1.68-1.68V650.7A1.69,1.69,0,0,0,303,649Z" transform="translate(0 -224.38)"/><rect x="241.32" y="476.65" width="39.43" height="84.35" rx="1.7" transform="translate(-257.79 555.48) rotate(-90)"/><rect x="241.32" y="433.16" width="39.43" height="84.35" rx="1.7" transform="translate(-214.3 511.99) rotate(-90)"/><rect x="241.32" y="389.67" width="39.43" height="84.35" rx="1.7" transform="translate(-170.81 468.5) rotate(-90)"/><rect x="175.17" y="454.18" width="39.43" height="84.35" rx="1.7" transform="translate(389.77 768.34) rotate(180)"/><rect x="307.47" y="454.18" width="39.43" height="84.35" rx="1.7" transform="translate(654.38 768.34) rotate(180)"/><rect x="394.03" y="230.33" width="39.43" height="84.35" rx="1.7"/><rect x="437.52" y="230.33" width="39.43" height="84.35" rx="1.7"/><rect x="481.01" y="230.33" width="39.43" height="84.35" rx="1.7"/><rect x="459.98" y="388.56" width="39.43" height="84.35" rx="1.7" transform="translate(910.43 -273.34) rotate(90)"/><rect x="524.5" y="230.33" width="39.43" height="84.35" rx="1.7"/><rect x="611.05" y="230.33" width="39.43" height="84.35" rx="1.7"/><rect x="654.54" y="230.33" width="39.43" height="84.35" rx="1.7"/><rect x="916.26" y="230.33" width="39.43" height="84.35" rx="1.7"/><rect x="959.75" y="230.33" width="39.43" height="84.35" rx="1.7"/><rect x="784.78" y="230.33" width="84.35" height="84.35" rx="1.71"/><rect x="741.1" y="230.33" width="39.43" height="84.35" rx="1.7"/><rect x="807.25" y="520.87" width="39.43" height="84.35" rx="1.7" transform="translate(1390 -488.3) rotate(90)"/><rect x="742.61" y="42.05" width="84.35" height="84.35" rx="1.71"/><rect x="698.92" y="42.05" width="39.43" height="84.35" rx="1.7"/><rect x="765.07" y="332.58" width="39.43" height="84.35" rx="1.7" transform="translate(1159.55 -634.4) rotate(90)"/><rect x="349.1" y="423.56" width="39.43" height="84.35" rx="1.7"/><rect x="392.59" y="423.56" width="39.43" height="84.35" rx="1.7"/><rect x="371.56" y="581.78" width="39.43" height="84.35" rx="1.7" transform="translate(1015.24 8.3) rotate(90)"/></svg>