<?xml version="1.0" encoding="UTF-8"?><svg id="Calque_1" xmlns="http://www.w3.org/2000/svg" viewBox="0 0 2000.36 284.12"><defs><style>.cls-1{fill:#fff;}</style></defs><path class="cls-1" d="M588.07,268.55h-26.86c-14.4,0-21.41-8.95-16.74-22.57l30.36-85.62,29.97,85.62c4.67,13.62-2.34,22.57-16.74,22.57m-18.68-240.92c-5.06-14.4,1.56-23.74,16.35-23.74h20.63c14.79,0,21.41,9.34,16.35,23.74l-26.86,75.89-26.47-75.89Zm-140.5,178.64c0,42.81-15.57,63.83-47.09,63.83-26.47,0-39.31-21.8-39.31-66.16V37.36c0-23.35,9.73-33.47,32.31-33.47h41.25c8.95,0,12.84,5.06,12.84,14.01V206.28Zm218.73,43.98l-49.43-140.89,32.3-92.24c3.11-8.95,9.34-13.23,19.85-13.23h72V0H0V3.89H59.94c22.18,0,31.92,10.12,31.92,33.47V235.08c0,23.35-9.73,33.47-31.92,33.47H0v3.89H262.32V38.92h-3.89V215.62c0,36.97-15.96,52.93-52.93,52.93h-74.73V37.36c0-23.35,9.73-33.47,32.3-33.47h108.58c22.18,0,31.92,10.12,31.92,33.47V203.94c0,53.71,24.13,80.18,72.78,80.18,37.75,0,56.44-25.69,56.44-77.84V17.9c0-9.73,3.11-14.01,12.84-14.01h58.76c10.51,0,16.74,4.28,19.85,13.23l48.26,137.39-33.47,95.74c-3.89,11.68-10.9,18.29-20.24,18.29h-73.56v3.89h296.18v-3.89h-73.56c-9.34,0-16.35-6.61-20.24-18.29"/><path class="cls-1" d="M1847.02,268.55h-73.95c-14.4,0-20.24-8.95-16.74-22.57l14.4-54.1h81.34l13.62,54.1c3.5,13.62-4.28,22.57-18.68,22.57m-116.37,0h-13.23c-22.57,0-32.3-10.12-32.3-33.47V37.36c0-23.35,9.73-33.47,32.3-33.47h69.28c10.51,0,19.46,4.28,21.79,13.23l2.34,9.34-59.94,223.79c-3.11,11.68-10.9,18.29-20.24,18.29m120.65-80.57h-79.4l40.87-153.73,38.53,153.73Zm-391.15,47.1c0,23.35-9.73,33.47-32.3,33.47h-38.92c-22.57,0-32.3-10.12-32.3-33.47V37.36c0-23.35,9.73-33.47,32.3-33.47h38.92c22.57,0,32.3,10.12,32.3,33.47V235.08Zm-293.45,33.47c-19.46,0-28.02-10.12-28.02-33.86v-81.34h24.52c49.82,0,34.25,94.58,92.24,115.2h-88.74ZM1138.68,3.89h24.52c27.24,0,40.48,22.96,40.48,69.28s-16.73,76.28-40.48,76.28h-24.52V3.89Zm-199.66,0h24.52c27.24,0,40.48,25.3,40.48,76.67s-22.96,83.68-65,84.84V3.89Zm987.78,264.66c-9.34,0-17.52-6.62-20.24-18.29L1844.68,0h-198.49l-67.72,221.07L1501.41,0h-275.55V3.89h59.94c22.19,0,31.92,10.12,31.92,33.47V235.08c0,23.35-9.73,33.47-31.92,33.47h-5.45c-37.36,0-31.92-101.58-98.86-117.15,34.25-7.39,57.21-35.81,57.21-78.23C1238.7,24.13,1213.79,0,1163.59,0h-141.8V3.89h46.06c22.18,0,31.91,10.12,31.91,33.47V234.69c0,23.74-9.73,33.86-31.91,33.86h-100.8c-19.46,0-28.02-10.12-28.02-33.86v-65.38c64.22-.78,100.02-32.69,100.02-88.74S1014.14,0,963.93,0h-155.68V3.89h59.94c22.18,0,31.91,10.12,31.91,33.47V234.69c0,23.74-9.73,33.86-31.91,33.86h-59.94v3.89h731.69v-3.89h-43.98c-22.19,0-31.92-10.12-31.92-33.47V19.46h2.73l92.63,264.66h4.28L1644.24,19.07h1.95V235.08c0,23.35-9.73,33.47-31.91,33.47h-32.69v3.89h418.78v-3.89h-73.56Z"/></svg>