<svg id="Calque_1" data-name="Calque 1" xmlns="http://www.w3.org/2000/svg" viewBox="0 0 1000 359.82"><path d="M264.56,554.54c0,34.06-19.25,74-49.36,99.21L191.51,674,230,492.35c3-13.33,3.94-23.2,3.94-29.61,0-11.85-3.45-14.81-6.91-14.81-22.7,0-52.31,41-80.94,105.13-14.81,34.06-31.59,74.53-49.85,126.85h-1l31.1-146.59.49-.5,8.39-40.47c3-13.33,3.95-23.2,3.95-29.61,0-11.85-3.46-14.81-6.91-14.81-22.71,0-52.32,41-80.95,105.13C36,587.12,19.74,627.59,1.48,679.91h-1l19.25-90.82,2.47-11.85,9.38-43.92,13.32-62.19C18.76,493.83.49,536.28.49,566.39c0,2,.5,4.44.5,6.41H.49A45.5,45.5,0,0,1,0,564.41c0-34.06,19.25-74,49.36-99.21L73.54,445,61.7,500.74l-9.87,45.41C80.45,488.4,106.61,445,138.2,445c10.86,0,23.2,2.46,23.2,24.68,0,4.93-1,11.84-2.47,19.74l-11.85,56.27C175.22,487.91,201.38,445,233,445c10.86,0,23.2,2.46,23.2,24.68,0,4.93-1,11.84-2.47,19.74L220.13,647.83c28.14-24.19,46.4-71.57,43.93-101.68A44.6,44.6,0,0,1,264.56,554.54Z" transform="translate(0 -320.09)"/><path d="M431.39,585.14c-31.59,76-63.67,94.77-90.82,94.77-33.56,0-56.27-32.08-56.27-81.94,0-82.92,58.74-153,110.07-153,21.72,0,39,14.8,39,39,0,48.37-76.5,111.05-121.91,145.11,69.1-57.75,91.8-95.75,91.8-145.11,0-22.71-6.41-38-15.3-38-22.21,0-76.5,63.68-76.5,162.88v20.24c2,27.64,11.35,48.86,33.07,48.86C371.17,677.93,405.72,646.84,431.39,585.14Z" transform="translate(0 -320.09)"/><path d="M623.39,554.05c0,34.05-19.74,74.53-49.35,99.7L550.35,674l38.49-181.64c3-13.33,3.95-23.2,3.95-29.61,0-11.85-3.45-14.81-6.91-14.81-22.7,0-52.32,41-80.94,105.13-15.31,34.06-31.59,74.53-49.86,126.85h-1l19.25-90.82,2.47-11.85,9.37-43.92,13.33-62.19c-26.16,22.7-44.42,65.15-44.42,95.26,0,2,.49,4.44.49,6.41h-.49a44.6,44.6,0,0,1-.5-8.39c0-34.06,19.25-74,49.36-99.21L527.15,445,515.3,500.74l-9.87,45.41C534.06,488.4,560.22,445,591.8,445c10.86,0,23.2,2.46,23.2,24.68,0,4.93-1,11.84-2.47,19.74L579,647.83c28.14-24.19,46.4-71.57,43.93-101.68A42.79,42.79,0,0,1,623.39,554.05Z" transform="translate(0 -320.09)"/><path d="M684.1,453.85H659.92c24.18,0,48.37-5.92,64.66-81l-16.79,78.48h48.87l-.49,2.47H707.3l-42.45,199.9C691,631,709.28,588.6,709.28,558.49c0-2-.5-4.44-.5-6.42h.5c3,35.54-16.79,80.45-48.87,107.6l-24.18,20.24Z" transform="translate(0 -320.09)"/><path d="M732.48,630.55c0-66.63,53.8-150,130.3-174.73C779.86,483.47,760.12,588.6,760.12,622.16c0,27.15,7.4,46.89,19.74,46.89,13.33,0,33.57-18.26,51.33-63.18L865.25,445c12.83,4.44,18.76,7.4,18.76,17.27a27.31,27.31,0,0,1-1,8.39L844,653.75c28.13-24.19,46.39-71.57,43.93-101.68h.49c3,35.54-17.28,80-49.36,107.6L815.4,679.91l14.31-68.61c-21.71,51.83-46.89,68.61-66.13,68.61C746.3,679.91,732.48,663.62,732.48,630.55Z" transform="translate(0 -320.09)"/><path d="M963,386.23c3-14.81,4.44-24.18,4.44-30.11,0-7.4-2.46-9.38-8.88-9.38-8.39,0-18.76,3.46-35,9.38l76.5-36L929.42,653.75C955.58,631,973.35,588.6,973.35,559c0-2.47-.5-4.93-.5-6.91h.5a42.79,42.79,0,0,1,.49,7.9c0,34.06-19.74,74.53-49.36,99.7l-23.69,20.24Z" transform="translate(0 -320.09)"/></svg>