<svg id="Calque_1" data-name="Calque 1" xmlns="http://www.w3.org/2000/svg" viewBox="0 0 1000 387.28"><defs><style>.cls-1{fill:#fff;}</style></defs><path class="cls-1" d="M288.8,311.89v-5.53c60.31,0,58.65,45.92,126.15,45.92,68.6,0,65.84-45.92,126.69-45.92v5.53c-47.58,0-76.9,41.49-76.9,89.63,0,11.07,1.11,16,8.85,16,18.81,0,29.88-111.2,174.28-111.2C706.52,306.36,753,329,753,417.56V598.48c0,48.69,29.32,90.18,76.9,89.63v5.53c-60.85,0-58.09-45.92-126.69-45.92-67.5,0-65.84,45.92-126.15,45.92v-5.53c46.48,0,76.35-41.49,76.35-89.63V497.23c0-98.48,66.4-157.68-48.13-157.68-87.41.56-140.53,96.82-140.53,163.22v95.71c0,48.14,29.32,89.63,76.9,89.63v5.53c-60.85,0-58.09-45.92-126.69-45.92-67.5,0-65.84,45.92-126.15,45.92v-5.53c46.48,0,76.35-41.49,76.35-89.63V502.77c0-66.4-53.11-162.66-140.53-163.22-114.52,0-48.13,59.2-48.13,157.68V598.48c0,48.14,29.88,89.63,76.35,89.63v5.53c-60.31,0-58.64-45.92-126.14-45.92-68.61,0-65.84,45.92-126.7,45.92v-5.53c47.58.55,76.9-40.94,76.9-89.63V417.56c0-88.52,46.48-111.2,105.12-111.2,144.4,0,155.47,111.2,174.28,111.2,7.75,0,8.85-5,8.85-16C365.15,353.38,335.28,311.89,288.8,311.89Z" transform="translate(0 -306.36)"/><path class="cls-1" d="M840.44,596.44V591c22.74,0,38-17.64,38-39.59V534.89c0-6.27,5.88-12.15,14.5-20.78l-3.92-3.92c-8.62,8.63-14.5,14.51-20.78,14.51H851.81c-21.56.39-39.6,16.07-39.2,38.42h-5.49c0-36.85,22.74-29,23.13-63.12-.39-34.11-23.13-26.27-23.13-63.12h5.49c0,22.74,17.64,38,39.59,38h16.47c6.27,0,12.15,5.88,20.78,14.51l3.92-3.93c-8.63-8.62-14.51-14.5-14.51-20.77l-.39-16.08c0-21.95-15.29-39.59-38-39.59v-5.49c36.85,0,29,22.74,63.12,23.13,34.11-.39,26.27-23.13,63.12-23.13v5.49c-22.74,0-38,17.64-38,39.59v16.47c0,6.27-5.88,12.15-14.51,20.78l3.93,3.92c8.62-8.63,14.5-14.51,20.77-14.51h16.47c22,0,39.59-16.07,39.2-38.42H1000c0,36.85-22.74,29-23.13,63.12.39,34.11,23.13,26.27,23.13,63.12h-5.49c0-22.74-17.64-38-39.59-38H938.45c-6.27,0-12.15-5.88-20.78-14.51l-3.92,3.93c8.63,8.62,14.51,14.5,14.51,20.77v16.47c0,22,16.07,39.6,38.42,39.2v5.49c-36.85,0-29-22.74-63.12-23.13C869.45,573.7,877.29,596.44,840.44,596.44Z" transform="translate(0 -306.36)"/></svg>