<svg id="Calque_1" data-name="Calque 1" xmlns="http://www.w3.org/2000/svg" viewBox="0 0 1000 520.63"><defs><style>.cls-1{fill:#fff;}</style></defs><path class="cls-1" d="M889.23,510.88H990.85c2.06,0,4.12,0,6.17.2,1.8.16,2.61,1,2.81,2.9a44.61,44.61,0,0,1,.16,4.48q0,100.5,0,201a39.38,39.38,0,0,1-.17,4.48c-.19,1.79-1,2.62-2.9,2.85a37.23,37.23,0,0,1-4.48.22q-32,0-64,0c-7.6,0-7.69-.13-7.72-8,0-4.67.1-9.36,0-14a48.7,48.7,0,0,0-3.26-17c-3.83-9.48-10.62-15.65-20.65-18.11a46.34,46.34,0,0,0-12.25-1.25,30.46,30.46,0,0,0-21.24,8.81,68,68,0,0,0-9.79,12.26c-4.35,6.76-8.5,13.66-13,20.35a102,102,0,0,1-8.24,10.63,61.78,61.78,0,0,1-35.42,20.18,90.91,90.91,0,0,1-50.76-4.35c-17.06-6.49-30-18-39.68-33.36-8.29-13.17-13.23-27.63-15.95-42.87-1.31-7.36-2.07-14.81-3.15-22.21a41.15,41.15,0,0,0-5.62-15.74c-3.82-6.26-9.2-10.76-15.5-14.31A91.39,91.39,0,0,0,647,600.34c-6.82-2-13.68-3.89-20.49-5.89a135.61,135.61,0,0,1-18-6.45c-9.56-4.34-17.75-10.34-23.48-19.36a51.24,51.24,0,0,1-7.69-22.07c-.67-6.09-1.26-12.19-.53-18.44a58.36,58.36,0,0,1,7.32-22.21c3.41-6,7.29-11.77,11-17.58A97.35,97.35,0,0,0,607,464.21a105.2,105.2,0,0,0,4.74-37.66,172.42,172.42,0,0,0-3.56-24.41c-2.07-9.89-4.5-19.73-5.5-29.79-2.72-27.24,5.79-50.22,27.13-67.79,9-7.4,19.58-11.39,31.26-12.81A84.46,84.46,0,0,1,686.69,293a43,43,0,0,1,11.14,3.73c3,1.48,6.06,3,9,4.61,8.21,4.61,17,6.28,26.38,6.57,12.89.39,24.27-3.56,34.91-10.4,6.95-4.47,13.17-9.87,19.5-15.13,6.75-5.63,13.54-11.21,21.12-15.77a58.58,58.58,0,0,1,30.36-8.77,85.22,85.22,0,0,1,20,2.16,101.42,101.42,0,0,1,41.92,20.66c24.52,20.35,38.82,46.62,44.52,77.71a90.89,90.89,0,0,1,1.51,21.8c-1,16.77-7.64,30.75-21,41.15a45.77,45.77,0,0,1-26.48,9.61c-9.56.48-18.61-1.05-27.09-5.6a38.28,38.28,0,0,1-11-8.67c-6.93-8-9.71-17.12-7.27-27.61,1-4.18,2.34-8.25,2.84-12.57,1.52-13.1-2.62-24.1-12.51-32.6-16.35-14-39.73-10.72-52.13,7-5.76,8.23-8.44,17.45-9.39,27.28-.46,4.83-.53,9.71-1,14.54-1.27,12.72-6.54,23.45-16.89,31.11-8.54,6.33-18.46,7.87-28.85,6.44a49.37,49.37,0,0,1-24.43-10.57c-1.75-1.4-3.63-2.65-5.41-4a41.06,41.06,0,0,0-22.88-8.31,38.64,38.64,0,0,0-20.11,4.08,43.52,43.52,0,0,0-15.07,12.35c-11.61,15.06-15.74,32-12.86,50.7.29,1.84.57,3.7,1,5.51,4.44,17.34,15.56,28.21,32.59,33.05a74.4,74.4,0,0,0,31.15,1.82,88.43,88.43,0,0,0,12.06-2.51,46.45,46.45,0,0,1,17.83-1.12,21.82,21.82,0,0,1,15.19,8.64c4.53,5.75,6.84,12.41,8.34,19.42A154.67,154.67,0,0,1,757.17,571c0,7.67,0,15.34,0,23a65,65,0,0,0,4.6,23.54c4.34,11.35,12.18,19.64,22.87,25.19,8.39,4.35,17.43,6.52,26.82,7.66a176.49,176.49,0,0,0,29.69.94c12.72-.59,25.34-2.1,37.59-5.87a75.23,75.23,0,0,0,23.12-11.21c11.33-8.44,17.75-19.54,17.93-33.9,0-3.37.07-6.74-.08-10.1-.11-2.51-1-3.28-3.5-3.45-1.86-.12-3.74-.08-5.61-.08h-123c-1.87,0-3.75,0-5.61-.11-2.38-.19-3.24-1.08-3.51-3.54a34.33,34.33,0,0,1-.14-3.93q0-30.32,0-60.63c0-7.39.24-7.61,7.53-7.61Z" transform="translate(0 -239.68)"/><path class="cls-1" d="M159.62,719a16.87,16.87,0,0,1,1.72-2.88c9.27-10.31,18.85-20.29,30.6-27.9a50.07,50.07,0,0,1,13.21-6.06c6.74-2,12.93-.67,18.8,2.88a28.85,28.85,0,0,1,7.5,6.69,92.46,92.46,0,0,1,11.9,19.63c5.72,12.44,9.87,25.45,13.93,38.5.28.89.48,1.81.8,2.68a1.3,1.3,0,0,0,2.24.39,13.81,13.81,0,0,0,2.32-5.06,276.69,276.69,0,0,1,12-33.22,109.28,109.28,0,0,1,9.56-17.76,54.82,54.82,0,0,1,5.7-6.93c9.63-10,19.45-10.27,30.22-5.82a58.36,58.36,0,0,1,12,7.18,105.06,105.06,0,0,1,11.12,9.42,303.47,303.47,0,0,1,25.89,28,9.72,9.72,0,0,0,1.2,1c1.11-.46.6-1.24.47-1.87-1.5-7.14-3.16-14.24-4.51-21.41-2.72-14.34-5.17-28.73-4.76-43.42a50.25,50.25,0,0,1,3.2-17c3-7.67,8.4-12.65,16.49-14.64a43.24,43.24,0,0,1,15.59-.82c12.35,1.48,24.15,5,35.77,9.26,8.44,3.07,16.83,6.29,25,10a28.38,28.38,0,0,0,3.7,1.28,1.11,1.11,0,0,0,1.39-.59,1.24,1.24,0,0,0-.09-1c-.91-1.18-1.87-2.32-2.86-3.44a452.71,452.71,0,0,1-29.62-36.66,142.52,142.52,0,0,1-15.05-25.6,74.81,74.81,0,0,1-4.42-13.29c-2.66-11.69.4-21.86,8.32-30.64A60.55,60.55,0,0,1,435.1,527.7a184.71,184.71,0,0,1,32.59-13.58c12.47-4,25.13-7.34,37.89-10.29a13.85,13.85,0,0,1,5.54-.44l0-.05c-1.42,1.82-3.45,2.85-5.32,4.08a236.56,236.56,0,0,0-24,17.55c-8.56,7.34-16.38,15.35-22.41,25a63.89,63.89,0,0,0-10,32.3C449,595,451.77,607.11,456,619a216.28,216.28,0,0,0,11.92,26.61c.85,1.66,1.74,3.31,2.62,5a2.66,2.66,0,0,1-.37,3.56c-1,1-2.12,1.57-3.54,1-11.34-4.53-23.1-3.58-34.84-2.53a79.55,79.55,0,0,0-15.42,2.82c-16.05,4.73-26.7,15.23-32.85,30.57-4.07,10.16-6,20.82-7,31.66-.43,4.46-.67,8.94-1,13.42a9.52,9.52,0,0,1-.49,2.16,1.82,1.82,0,0,1-2.36.87c-.81-.46-1.53-1.06-2.3-1.58-10.29-6.93-21.16-12.69-33.1-16.28-19.47-5.86-37-2.11-52.43,11-8,6.82-14.75,14.85-21,23.27-1.43,1.91-1.56,4.18-2.27,6.28-1,2.9-1.32,3.07-4.34,3.46-1.85.24-2.74-.76-3.63-2-3-4.29-5.93-8.64-9.05-12.84a104.65,104.65,0,0,0-22.38-22.68c-12.8-9.26-27-12.46-42.53-9.33a86.56,86.56,0,0,0-15.06,4.38,12.26,12.26,0,0,1-4.86,1.2Z" transform="translate(0 -239.68)"/><path class="cls-1" d="M159.62,719a4.94,4.94,0,0,1-.55,1.57c-3.47,4.15-7,8.26-10.51,12.38a.94.94,0,0,1-.45.31c-.35.09-.78.25-1.05.12a1.2,1.2,0,0,1-.51-.89c0-1.84.91-3.61.35-5.79-2.25.45-3.94,2-5.91,2.84-2.32,1-3.58.36-3.79-2.23s-.1-5.23-.19-7.84c-.45-13-2.16-25.72-6.82-37.88C124.25,666,113.31,655.89,97,651.76c-4.9-1.24-9.79-2.42-14.89-2.33a6.26,6.26,0,0,1-1.68-.11c-6.76-1.75-12.89.07-18.83,3.19-1.65.87-3.37,1.63-5.09,2.34-1.14.46-2.49,1.69-3.54.37-.79-1,.45-2,1.05-2.93.4-.61,1-1.14.66-2.11-1.5-1-3.13-.26-4.74-.1-.93.09-1.95.32-2.61-.53-.84-1.07-.18-2.12.33-3.1s1.07-2,1.63-2.94a185.74,185.74,0,0,0,14.77-31.4c3-8.66,5.32-17.53,5.5-26.78.29-14.91-4.8-27.81-14.69-38.87a120.82,120.82,0,0,0-29.21-23.38c-5.79-3.41-11.75-6.54-17.65-9.77-1.62-.9-3.47-1.47-4.46-3.23l-.08.05c3.8-.53,7.45.61,11.08,1.31,15.43,3,30.81,6.2,45.81,10.89,12,3.74,23.81,7.85,34.19,15.22a45.59,45.59,0,0,1,8.42,7.38A29.79,29.79,0,0,1,110.08,570a51.59,51.59,0,0,1-3,10.79A132.22,132.22,0,0,1,91,609.58c-8.7,12.19-18.19,23.74-28.06,35a20.06,20.06,0,0,0-1.62,2.25c-.07.11.07.36.18.86,4.38-.24,8.77-.44,13-2.13,6.42-2.55,12.92-4.93,19.41-7.33a131,131,0,0,1,32.66-7.7,34.8,34.8,0,0,1,15.45,2,21.79,21.79,0,0,1,13.33,13.57c3.09,8.4,3.7,17.15,2.94,26a201.53,201.53,0,0,1-2.83,23.36c-1.34,6.6-2.5,13.22-3.74,19.84-.25,1.28-.61,2.55-.77,3.84-.22,1.73.76,2.54,2.3,1.94,2.09-.81,4.06-2,6.37-2.07Z" transform="translate(0 -239.68)"/><path class="cls-1" d="M258.46,247.34a10.66,10.66,0,0,1,.65-5.5c1-2.16,3.95-2.92,5.58-1.25a23,23,0,0,1,2.65,3.6,186.25,186.25,0,0,0,18.48,24.7c8.58,9.39,18.43,17,30.8,20.76a34.2,34.2,0,0,0,6.58,1.29c13.83,1.45,26.75-1.61,39.2-7.43,4.64-2.17,9-4.55,12-8.89a23.71,23.71,0,0,1,3-3.32c.74-.75,1.51-2.07,2.72-1.17.52.39.36,1.67.51,2.55,5.79-1.41,5.77-1.41,5.83,5,.05,5.24,0,10.49.23,15.72a102.6,102.6,0,0,0,5.53,30.23c5.3,14.79,15.48,24.4,30.49,29A81,81,0,0,0,442,355.84a121.26,121.26,0,0,0,21.3-.39,45,45,0,0,1,6.15-.09c.24,0,.61.47.65.76a1.06,1.06,0,0,1-.39.93,29.22,29.22,0,0,1-3.51,1.72c-12.91,5-25.91,9.74-39.25,13.52a172,172,0,0,1-26.39,5.18A41.88,41.88,0,0,1,384.47,376c-8.26-2.23-13.69-7.52-16.35-15.53a57.81,57.81,0,0,1-2.5-21.58c.95-16.91,4.64-33.31,8.71-49.66.72-2.91,1.46-5.8,2.13-8.72a2.06,2.06,0,0,0-.19-1.56c-.58-.68-1.35-.25-2,.08a20.57,20.57,0,0,0-6.14,4.75c-10,10.95-20.41,21.39-32.57,30a63.21,63.21,0,0,1-12.27,6.75c-11.93,4.95-23.45,2.22-32-7.52-6-6.82-10.35-14.64-14-22.87A317.34,317.34,0,0,1,262.84,250c-.15-.54-.24-1.1-.41-1.63-.81-2.48-1.27-2.59-4-1.06Z" transform="translate(0 -239.68)"/><path class="cls-1" d="M258.41,247.3c-.28,4.55-2.11,8.72-3.44,13a266.4,266.4,0,0,1-10.34,27.88,99.45,99.45,0,0,1-12.2,21.4c-3.35,4.32-7.18,8.13-12.15,10.62-6.21,3.1-12.59,3.19-19.11,1.19a55.23,55.23,0,0,1-14.93-7.65A133.76,133.76,0,0,1,166.64,297c-6.82-6.94-13.76-13.77-19.92-21.32-.69-.84-1.29-1.86-2.48-2.16-1,.42-.57,1.19-.4,1.84,2.88,10.85,5.59,21.74,7.72,32.76,2.44,12.7,4.4,25.44,3.73,38.45a42.2,42.2,0,0,1-2.77,13.68c-3.49,8.69-9.91,13.7-19.15,15.43-8.1,1.51-16.06.66-24-.81-14-2.61-27.56-6.92-40.92-11.83-3.51-1.29-7-2.73-10.42-4.15-.5-.2-1-.69-.58-1.31a1.26,1.26,0,0,1,1-.46c2.62,0,5.24,0,7.85.06A120.84,120.84,0,0,0,92.52,355a59,59,0,0,0,13.92-4.28c12.79-5.86,21.15-15.69,25.83-28.85A109.17,109.17,0,0,0,138,291.12c.32-5.78.23-11.59.37-17.39,0-1.66-.23-3.63,1.53-4.53,2.12-1.08,3.46.6,4.76,1.94,2.94,3,6.82,4.59,10.36,6.63,9.95,5.73,20.39,10.26,31.78,12.28a50.72,50.72,0,0,0,36.64-6.79,86.32,86.32,0,0,0,21.26-19c3.56-4.33,6.89-8.85,10.3-13.31a12.19,12.19,0,0,1,3.45-3.63Z" transform="translate(0 -239.68)"/><path class="cls-1" d="M3.55,510.08c-.56,0-1.12,0-1.68-.1a1.91,1.91,0,0,1-1.76-1.16,1.55,1.55,0,0,1,.74-1.92,44,44,0,0,1,3.79-2.4A242.26,242.26,0,0,0,27.32,490c10.89-7.68,21-16.21,29-27.05a60.88,60.88,0,0,0,11.34-25.38,68.84,68.84,0,0,0-1.27-29.48,141,141,0,0,0-13-32.17c-2.66-4.94-5.6-9.73-8.41-14.58-.47-.81-.94-1.62-1.38-2.44a2.7,2.7,0,0,1,.38-3.57c1.08-1.09,2.14-2.25,3.85-1.6a51.79,51.79,0,0,1,5.6,2.48c.58.3.29,1-.3,1.28-1.61.68-1.21,1.62-.34,2.56,4.31,4.67,8.67,9.31,13,14a326.61,326.61,0,0,1,27.47,33.32c5.82,8.28,11.06,17,13.93,26.77,1.52,5.22,2.42,10.5,1.61,16.05a33.55,33.55,0,0,1-8.64,17.9A62.76,62.76,0,0,1,84.3,480.47C73.07,486.93,61.11,491.76,48.9,496c-13.09,4.53-26.41,8.31-39.82,11.76-2,.52-4,.93-5.61,2.38Z" transform="translate(0 -239.68)"/><path class="cls-1" d="M511.12,503.39l1.74-2.54c-1.28-1.23-3-1.32-4.52-1.68-10.2-2.4-20.46-4.53-30.56-7.24-13.55-3.63-26.95-7.76-39.6-14A79,79,0,0,1,422.61,468,30,30,0,0,1,411.43,448c-.55-4.54.32-9,1.48-13.29a64.8,64.8,0,0,1,7.62-16.8c6.85-11.22,15.08-21.38,23.66-31.29,7.6-8.77,15.69-17.07,23.86-25.3a46,46,0,0,0,5.5-6.33,1.52,1.52,0,0,1,2-.44,1.61,1.61,0,0,1,.86,2.32c-.74,1.5-1.63,2.93-2.5,4.37a201.4,201.4,0,0,0-17.55,35.05A79,79,0,0,0,451.1,422a50.42,50.42,0,0,0,8.18,28.72,81.37,81.37,0,0,0,16.85,18.66c10.14,8.38,21.35,15.11,33,21.19,3.32,1.73,6.68,3.37,10,5.12,1.09.57,1.34,1.48,1.14,2.81-.38,2.54-1.43,4.16-4.15,4.37-1.67.13-3.34.34-5,.52Z" transform="translate(0 -239.68)"/></svg>