<svg id="Calque_1" data-name="Calque 1" xmlns="http://www.w3.org/2000/svg" viewBox="0 0 1000 107.74"><defs><style>.cls-1{fill:#fff;}</style></defs><path class="cls-1" d="M301.27,453.42a49.08,49.08,0,0,0-26-7.29H52.08a49,49,0,0,0-26,7.29,54,54,0,0,0-19,19.64,54.84,54.84,0,0,0,0,53.87,53.92,53.92,0,0,0,19.05,19.65,49,49,0,0,0,26,7.29H275.3a49.08,49.08,0,0,0,26-7.29,54,54,0,0,0,19-19.65,54.84,54.84,0,0,0,0-53.87A54,54,0,0,0,301.27,453.42ZM303.5,517a33.26,33.26,0,0,1-11.91,12.28,30.91,30.91,0,0,1-16.29,4.54H52.08a30.8,30.8,0,0,1-16.37-4.54A33.44,33.44,0,0,1,23.88,517a34.37,34.37,0,0,1,11.83-46.2,30.8,30.8,0,0,1,16.37-4.54H275.3a30.91,30.91,0,0,1,16.29,4.54A33.34,33.34,0,0,1,303.5,483a35,35,0,0,1,0,33.92Z" transform="translate(0 -446.13)"/><polygon class="cls-1" points="490.33 1.79 336.31 1.79 336.31 21.13 490.33 21.13 490.33 105.95 509.67 105.95 509.67 21.13 663.69 21.13 663.69 1.79 509.67 1.79 490.33 1.79"/><path class="cls-1" d="M981.55,516.52A36.88,36.88,0,0,0,995,503.13a35.83,35.83,0,0,0,5-18.46,35.45,35.45,0,0,0-5-18.38,37.66,37.66,0,0,0-13.47-13.39,35.83,35.83,0,0,0-18.45-5H672.62V552.08H692V521.43H949.41l31.1,30.65H1000v-7.74l-25-24.83A36.24,36.24,0,0,0,981.55,516.52ZM692,467.26H963.1a19.16,19.16,0,0,1,9,2.23,17.69,17.69,0,0,1,6.77,6.18,15.6,15.6,0,0,1,2.53,8.56,17.12,17.12,0,0,1-2.53,9.15,18.36,18.36,0,0,1-6.77,6.47,18.09,18.09,0,0,1-9,2.38H692Z" transform="translate(0 -446.13)"/></svg>