<svg id="Calque_1" data-name="Calque 1" xmlns="http://www.w3.org/2000/svg" viewBox="0 0 1000 434.66"><defs><style>.cls-1{fill:#fff;}</style></defs><path class="cls-1" d="M257.42,282.76l-8.06-.09H0V717.33H25.74V381.82h234a42,42,0,0,0,41.95-41.94V327.5A44.75,44.75,0,0,0,257.42,282.76Zm19.67,73.32H25.74V308.41H249.36l27.73.88Z" transform="translate(0 -282.67)"/><path class="cls-1" d="M586.82,282.69H413.21a64,64,0,0,0-64,64v370.6h25.6V372.37H625.23V717.31h25.6V346.71A64,64,0,0,0,586.82,282.69Zm-212,65.45v-40.3H625.23v40.3Z" transform="translate(0 -282.67)"/><path class="cls-1" d="M1000,308.75V282.69H763.52a65.15,65.15,0,0,0-65.15,65.16h0v304.3h0a65.15,65.15,0,0,0,65.15,65.16H1000V691.25H724v-39.1h0V347.85h0v-39.1Z" transform="translate(0 -282.67)"/></svg>