<svg id="Calque_1" data-name="Calque 1" xmlns="http://www.w3.org/2000/svg" viewBox="0 0 1000 156.66"><defs><style>.cls-1{fill:#fff;}</style></defs><path class="cls-1" d="M121.06,571.21H80.11L54.83,516c-7.48,0-11.93-2.67-16.2-6.94l-6.41,6.41c4.27,4.27,7,8.9,7,16.55v39.17H0v-130H96l15.48,6.23,5.52,6.77,5.34,13v19.23L117,499.29l-5.52,6.76-7.83,4.1a23.71,23.71,0,0,1-14.24-4.28l-4.81,7.3c7.3,4.45,12.28,8.19,16,16ZM88.48,467.42,82.07,461c-4.27,4.28-8.9,6.95-16.56,6.95H55.19c-7.66,0-12.29-2.67-16.56-6.95l-6.41,6.41c3.56,3.56,7,6.05,7,11.22s-3.39,7.65-7,11.21l6.41,6.41c4.27-4.27,8.9-6.94,16.56-6.94H65.51c7.66,0,12.29,2.67,16.56,6.94l6.41-6.41c-3.56-3.56-7-6.05-7-11.21S84.92,471,88.48,467.42Z" transform="translate(0 -421.67)"/><path class="cls-1" d="M198.86,554.48h8.9V535.25h35.6v36H136.55V510.68l4.27-14.42,6.41-9.79,14.42-10.68,18.69-4.27h19l18.87,3.56,14.25,8.72,6.23,8.19,4.62,11.93v21.89H190c-7.66,0-13.18,0-16.56-3.38L167,528.84c3.56,3.56,6.95,5,6.95,9.43s-3.39,6.24-6.95,9.8l6.41,6.41c4.1-4.1,6.77-7,12.64-7S194.76,550.38,198.86,554.48Zm6.76-37.39,6.41-6.41c-3.91-3.92-6.23-7.3-7.47-11.93l-2-2.49-3.92-3.2-5.16-2h-7.3l-4.81,2-4.09,3.2-2.14,2.49c-1.07,4.63-3.56,8-7.48,11.93l6.41,6.41c4.28-4.27,8.55-6.94,15.67-6.94C197.26,510.15,201.53,513,205.62,517.09Z" transform="translate(0 -421.67)"/><path class="cls-1" d="M269.18,572.46l-8.9-10.86V550l8.9-10.85h21.37l8.9,10.85V561.6l-8.9,10.86Z" transform="translate(0 -421.67)"/><path class="cls-1" d="M373.33,428.79H352v-7.12h49.85l-35.61,71.21,14.24-14.24,21.37-7.12,14.24,7.12,7.12,28.48-14.24,35.61-35.61,28.48H344.85L330.61,557l-14.25,21.36-7.12-7.12L344.85,500Zm7.12,64.09-21.36,21.36-21.36,28.49v7.12l7.12,7.12h14.24l28.48-21.37,14.25-28.48-7.13-21.36Z" transform="translate(0 -421.67)"/><path class="cls-1" d="M530,507.12l-21.36,14.24H473v-7.12h21.36l14.25-7.12V485.76H494.39L473,507.12,458.79,535.6,465.91,557h14.24l28.49-28.49,7.12,7.12-28.49,28.49L473,571.21H458.79l-14.24-7.12-7.12-28.49,21.36-42.72,35.6-21.36,28.49,7.12L530,492.88Z" transform="translate(0 -421.67)"/><path class="cls-1" d="M558.49,557l35.6-35.61,7.12,7.12-35.6,35.61-21.36,7.12L530,564.09V557l57-128.18H565.61v-7.12h49.84L551.37,557Z" transform="translate(0 -421.67)"/><path class="cls-1" d="M629.7,557l35.6-35.61,7.13,7.12-35.61,35.61-21.36,7.12-14.24-7.12V557l57-128.18H636.82v-7.12h49.85L622.58,557Z" transform="translate(0 -421.67)"/><path class="cls-1" d="M708,478.64l21.37-7.12,14.24,7.12v7.12L700.91,557H708l35.61-35.61,7.12,7.12-35.61,35.61-14.24,7.12H686.67l-7.12-7.12V557l42.72-71.21h-7.12l-35.6,35.6-7.12-7.12Zm28.49-28.49V443l7.12-14.24h7.12L765,435.91V443l-7.12,14.24h-7.12Z" transform="translate(0 -421.67)"/><path class="cls-1" d="M786.37,571.21l-14.25-7.12L757.88,535.6l21.36-42.72,35.61-21.36,28.48,7.12,14.24,28.48-21.36,42.73-35.6,21.36Zm28.48-85.45-21.36,21.36L779.24,535.6,786.37,557h14.24L822,535.6l14.24-28.48-7.12-21.36Z" transform="translate(0 -421.67)"/><path class="cls-1" d="M864.7,514.24l35.61-35.6,21.36-7.12,7.12,7.12v7.12L921.67,500,943,478.64l21.37-7.12,21.36,7.12V500l-35.61,57h7.13l35.6-35.61,7.12,7.12-35.6,35.61-14.25,7.12H935.91l-7.12-7.12V557l35.61-64.09-7.12-7.12L943,492.88l-21.36,21.36-28.48,57H878.94l-7.12-7.12,42.73-78.33h-7.12l-35.61,35.6Z" transform="translate(0 -421.67)"/></svg>