<svg id="Calque_1" data-name="Calque 1" xmlns="http://www.w3.org/2000/svg" viewBox="0 0 1000 647.7"><path d="M119.59,302.16c22.07,0,40.93-10,61.4-10,29.29,0,49.36,26.48,49.36,53.77,0,39.33-34.11,34.91-34.11,89.49,0,39.73-39.73,53.77-70.63,53.77-20.47,0-46.15-8-62.61-37.72-16.85-30.5-63-27.29-63-71C0,362,14.05,347.5,39.73,347.5c30.9,0,54.17,26.09,54.58,55,.4,19.67,2,39.73,20.86,39.73,14.45,0,18.06-10,15.25-27.29-8-50.56,54.58-27.29,51.77-69.42-1.61-24.08-15.65-29.7-31.7-29.7-25.28,0-37.72,26.09-67.42,26.09-24.48,0-44.55-17.66-44.55-40.94,0-21.26,17.26-28.49,17.26-47.75,0-11.24-6.42-20.06-6.42-30.5,0-21.27,14.45-41.73,39.33-41.73,14.44,0,26.88,9.23,38.52,9.23,13.65,0,22.88-13.65,40.13-13.65,16,0,39.73,7.63,39.73,34.11,0,25.68-20.47,40.13-40.53,40.13-18.86,0-34.11-18.86-61.8-18.86-16.86,0-32.91,7.22-35.72,27.69C65.41,286.11,92.7,302.16,119.59,302.16Z" transform="translate(0 -176.15)"/><path d="M226.33,181.77H438.21v50.16H358.76V482.74h-53V231.93H226.33Z" transform="translate(0 -176.15)"/><path d="M507.23,181.77c4,20.06,28.49-5.62,66.21-5.62,39.33,0,81.86,17.26,81.86,72.24,0,93.5-82.26,47.75-82.26,94.3,0,12.44,6.42,26.48,33.31,23.28,13.64-1.61,51.36-.81,51.36,42.53,0,30.9-20.06,81.47-60.59,81.47-16.86,0-30.5-9.64-31.31-20.47-2.81-32.91,35.32-32.91,35.32-61.8,0-14.45-13.24-26.09-28.49-26.09-21.67,0-30.1,24.89-51.77,24.89a27.72,27.72,0,0,1-13.64-3.62v79.86h-53v-301Zm33.7,118c0-22.07,16.86-24.88,30.9-22.07,18.46,4,34.52-2,34.11-31.3-.4-22.07-20.06-41.74-47.75-41.74-24.08,0-51,18.06-51,66.62V315.4c0,22.07,11.63,32.91,22.47,32.91C554.58,348.31,540.93,314.2,540.93,299.75Z" transform="translate(0 -176.15)"/><path d="M673.75,181.77H861.56v50.16H726.73v75H861.56v50.17H726.73v75.44H861.56v50.16H673.75Z" transform="translate(0 -176.15)"/><path d="M877.6,307H1000v50.17H877.6Z" transform="translate(0 -176.15)"/><path d="M135.24,700.25c0,10.84,6.82,24.08,20.47,24.08,26.08,0,24.47-40.13,24.47-52.57,0-41.33-40.93-48.56-40.93-87.08,0-18.06,15.25-31.3,28.09-31.3,21.27,0,21.27,16.45,43.34,16.45,11.24,0,23.68-6,23.28-32.1l-.4-18.46h51.36v301H233.56l.4-199.85c0-9.23-6-20.46-17.66-20.46-10.43,0-14.45,8.83-14.45,16.85,0,17.26,19.27,20.07,19.27,43.34,0,17.66-10.44,26.09-18.46,30.1-14.85,7.62-13.65,26.48-13.25,34.11.8,15.65,1.61,24.88,3.21,37.32C197,796.16,177,803.38,155.3,803.38c-16.05,0-37.32-10-37.32-34.11,0-28.09,15.65-51-5.21-51.36-19.27-.4-35.72-8.43-35.72-27.69s10-21.67,10-55c0-12.44-10.83-20.06-19.66-20.06-14.45,0-15.65,12-15.65,27.28V820.24H0v-301H51.77c0,26.48,5.22,34.11,15.25,34.11,16.45,0,18.86-14.85,34.91-14.85,7.22,0,24.48,5.21,24.48,21.27,0,31.3-16.45,30.09-16.45,52.57,0,12.44,3.61,22.87,16.45,23.67,10.43.81,24.48,5.62,24.48,20.47C150.89,672.16,135.24,678.18,135.24,700.25Z" transform="translate(0 -176.15)"/><path d="M337.08,732.35c0-37.72-36.12-32.1-36.12-74.23,0-55,67-26.09,67-79.46,0-46.15,45.75-63.41,90.69-63.41,85.48,0,129.62,41.34,129.62,97.92,0,41.73-18.86,54.58-18.86,77.85,0,22.07,9.63,24.48,9.63,53,0,57.79-75.44,79.86-126.41,79.86C363.57,823.85,337.08,794.15,337.08,732.35Zm51,36.92c0,23.68,25.68,40.13,62.6,40.13,31.3,0,74.24-11.23,74.24-57,0-29.3-22.07-34.91-22.07-68.62,0-51,30.9-54.18,30.9-85.88,0-40.53-36.92-58.19-65.82-59.79-28.49-1.21-48.15,11.63-48.15,33.71,0,14.84,12.84,28.49,12.84,44.54,0,44.54-73.44,12-73.44,57.38,0,27.29,38.53,23.28,38.53,53.38C397.68,745.2,388.05,747.2,388.05,769.27Z" transform="translate(0 -176.15)"/><path d="M604.33,820.24v-301H656.1v8c0,11.24,6.82,16.86,16.85,16.86,17.66,0,15.65-20.47,39.33-20.47,17.66,0,37.32,10,37.32,38.93,0,22.07-12,40.53-27.69,51.76-22.07,16.06-23.68,29.3-23.68,37.32,0,9.63,3.62,15.25,10,15.25,16.85,0,18.06-28.09,41.33-28.09,6.82,0,18.06,6.83,18.06,14V519.27h52.57v301H767.66v-8.43c0-12.84-12-15.65-30.9-18.06-14.45-2-25.28-11.23-25.28-24.07,0-12,7.62-23.68,23.67-23.68,15.66,0,26.09-10,26.09-31.3C761.24,696.64,748.4,691,740,691c-21.27,0-19.66,22.88-46.55,22.88-20.47,0-34.51-11.24-34.51-37.33,0-40.53,36.52-41.33,36.52-67.81,0-10.84-8-21.67-18.06-21.67-16,0-20.87,12.84-20.87,24.87V820.24Z" transform="translate(0 -176.15)"/></svg>