<svg id="Calque_1" data-name="Calque 1" xmlns="http://www.w3.org/2000/svg" viewBox="0 0 1000 358.42"><defs><style>.cls-1{fill:#fff;}</style></defs><path class="cls-1" d="M62.26,494.92c-35.24,0-57-12.13-57-32.1,0-14.69,9.2-28,28.78-40.92-11.36-8.62-19.39-20.17-19.39-37.59C14.68,363,31.52,343,65,343c24.47,0,47.18,13.31,47.18,32.5,0,15.47-12.72,29.95-15.27,43.07,11.55,8.62,20,19.19,20,33.48C116.88,481.61,95.34,494.92,62.26,494.92Zm19-15.27c12.53,0,19-3.91,19-11.94,0-17-25.06-23.49-48-34.85-22.32,1.77-29.76,7.83-29.76,14.69C22.51,461.64,56.78,479.65,81.25,479.65Zm9.59-65.19c1-35.44-18.6-54.82-46.2-54.82C33.28,359.64,29,364.93,29,372,29,389,65,398,90.84,414.46Z" transform="translate(0 -320.79)"/><path class="cls-1" d="M176.2,528.8c-27.21,0-51.1-12.34-51.1-32.5,0-14.49,9.4-24.87,23.3-33.09l-2-11.16c-5.29-18.8-10.38-36.22-18.4-55.8l-3.92-6.07-17.42,5.48V385.48l40.13-11.16c3.92,8.23,7.25,16.45,10.38,24.48,8.42-15.27,17.81-23.89,31.32-23.89,17,0,30.74,13.71,30.74,38.18,0,65-81.84,73.61-81.84,93.39,0,3.13,2.75,4.5,7.25,4.5,27.41,0,57-11.55,57-21.54,0-2.74-2.15-5.87-7.05-9.79l4.11-3.52c8.62,5.68,14.88,13.9,14.88,24.86C213.59,516.66,198.91,528.8,176.2,528.8ZM159.56,405.65c6.46,18.21,11.35,36.22,16.44,54.82,15.67-3.33,28-10.77,28-25.45,0-21.34-18.21-32.5-33.09-32.5C166,402.52,162.3,403.69,159.56,405.65Z" transform="translate(0 -320.79)"/><path class="cls-1" d="M232.38,431.49l-6.46-48.94,31.91-5.09,1.57,18.6.2,8.81c9.59-21.54,22.51-29,34.06-29,11.36,0,24.08,8.62,32.11,26.24-2.94,8-7.44,26.43-7,36.21l2.15,54H289.35l3.72-78.9c-2.54-9.59-9-18.4-14.88-18.4-11.94,0-17.42,24.47-17.42,66.17l.59,31.13H229.84Z" transform="translate(0 -320.79)"/><path class="cls-1" d="M403.69,494.92c-48.95-12.13-71.07-33.47-71.07-66.95,0-29.76,24.08-51.69,55.6-51.69l9.4-8.22,4.69,5.29A18.1,18.1,0,0,0,393.9,389c0,7.63,4.3,16.64,14.09,24.47l5.09-1.37,1.57,8.61-67.54,17.62c9.59,9,29.75,16.06,63.23,21.54Zm-62.07-64,36-9.39a29,29,0,0,1-6.27-17.23,36.58,36.58,0,0,0-8.81-1.18c-13.31,0-22.32,8.62-22.32,20.76A18,18,0,0,0,341.62,430.9Z" transform="translate(0 -320.79)"/><path class="cls-1" d="M458.11,494.92c-27.8,0-38.57-11.15-38.57-22.12,0-13.51,9.79-22.71,23.69-31.52C433.05,434,425.41,424.64,425.41,410c0-17.82,17.43-33.68,39.55-33.68,21,0,36.41,13.32,36.41,26.24,0,13.7-8.41,20.55-12.92,29.36,10.58,7.05,18.8,15.67,18.8,27.61C507.25,480.44,484,494.92,458.11,494.92Zm24.27-14.87q7,0,7.05-5.29c0-10.77-14.29-16.45-29.56-23.89-20.36-.19-23.49,3.14-23.49,7.84C436.38,468.3,464.18,480.05,482.38,480.05Zm.2-51.69c-.39-22.71-17.23-37.59-32.5-37.59-8.81,0-10.77,3.13-10.77,7.44C439.31,410.35,463,417.4,482.58,428.36Z" transform="translate(0 -320.79)"/><path class="cls-1" d="M554.62,494.92c-15.46,0-33.67-12.52-31.13-33.08L527,434.23l-2.16-36-16.25-4.31v-3.72l40.92-35.83,3.53.59.39,25.26h40.33a171.57,171.57,0,0,1-4.11,19H553.45l-1,52.86c-.2,14.29,7.24,20.16,17,20.16,6.66,0,12.92-2.93,21.15-13.7l4.89,3.72C580.47,487.29,569.31,494.92,554.62,494.92Z" transform="translate(0 -320.79)"/><path class="cls-1" d="M606.5,418.37l-3.72-78.7,4.11-.59,5.48,18.41,20.76-19.38,1.76.78v30.34l-1.18,34.07c9.6-20.36,22.13-27.41,33.48-27.41s24.08,8.62,32.11,26.24c-2.94,8-7.44,26.43-7,36.21l2.15,54H662.88l3.72-78.9c-2.54-9.59-9-18.4-14.88-18.4-11.35,0-16.83,22.32-17.42,60.88l1,36.42H604.54Z" transform="translate(0 -320.79)"/><path class="cls-1" d="M777.21,494.92c-48.94-12.13-71.06-33.47-71.06-66.95,0-29.76,24.08-51.69,55.6-51.69l9.4-8.22,4.7,5.29A18.09,18.09,0,0,0,767.43,389c0,7.63,4.3,16.64,14.09,24.47l5.09-1.37,1.57,8.61-67.55,17.62c9.6,9,29.76,16.06,63.24,21.54Zm-62.06-64,36-9.39a29,29,0,0,1-6.27-17.23,36.58,36.58,0,0,0-8.81-1.18c-13.31,0-22.32,8.62-22.32,20.76A18,18,0,0,0,715.15,430.9Z" transform="translate(0 -320.79)"/><path class="cls-1" d="M831.64,494.92c-27.8,0-38.57-11.15-38.57-22.12,0-13.51,9.79-22.71,23.69-31.52C806.58,434,798.94,424.64,798.94,410c0-17.82,17.42-33.68,39.55-33.68,21,0,36.41,13.32,36.41,26.24,0,13.7-8.42,20.55-12.92,29.36,10.57,7.05,18.8,15.67,18.8,27.61C880.78,480.44,857.48,494.92,831.64,494.92Zm24.27-14.87q7.05,0,7.05-5.29c0-10.77-14.29-16.45-29.56-23.89-20.36-.19-23.5,3.14-23.5,7.84C809.9,468.3,837.71,480.05,855.91,480.05Zm.2-51.69c-.39-22.71-17.23-37.59-32.5-37.59-8.81,0-10.77,3.13-10.77,7.44C812.84,410.35,836.53,417.4,856.11,428.36Z" transform="translate(0 -320.79)"/><path class="cls-1" d="M910.14,374.91c-14.88,0-25.26-16.05-22.32-33.28,9.59-4.7,18.8-4.5,25.84-4.5l3.53-16.25c2.74-.39,5.67.58,7,2.15C920.71,336,913.86,361.21,910.14,374.91ZM890.36,492.38l3.92-59.13-6.46-42.87L919,385.29c2,35.43,2.94,71.26,2.94,107.09Z" transform="translate(0 -320.79)"/><path class="cls-1" d="M1000,459.88l-6.66,35c-40.72-11.94-60.88-38.76-60.88-68.71,0-28.2,26.62-49.93,62.45-49.93l-4.5,34.85C978.86,408,970.05,407,963.58,407c-14.87,0-23.49,5.87-23.49,16.45C940.09,440.89,957.52,449.31,1000,459.88Z" transform="translate(0 -320.79)"/><path class="cls-1" d="M32.7,635.75,0,638.1l35-30-6.46-51.29L1.76,526.7c79.88,2.74,122,18.2,122,52.86,0,19-10.37,32.89-30.54,42.09l42.88,54.62H100.63l-34.06-46a69.93,69.93,0,0,1-6.86,1.37l1.37,44.64H29Zm26.43-28.39L69.31,607c36.8-1.57,43.26-7.83,43.26-17.82,0-15.27-23.1-25.25-51.88-29.56l-2,38Z" transform="translate(0 -320.79)"/><path class="cls-1" d="M203.22,678.82c-48.95-12.14-71.07-33.48-71.07-67,0-29.76,24.08-51.68,55.6-51.68l9.4-8.23,4.7,5.29a18.09,18.09,0,0,0-8.42,15.66c0,7.64,4.3,16.64,14.09,24.47l5.09-1.37,1.57,8.62-67.54,17.62c9.59,9,29.76,16,63.23,21.53Zm-62.07-64,36-9.4a29.08,29.08,0,0,1-6.27-17.23A36.55,36.55,0,0,0,162.1,587c-13.31,0-22.32,8.61-22.32,20.75A18.23,18.23,0,0,0,141.15,614.8Z" transform="translate(0 -320.79)"/><path class="cls-1" d="M287,643.77l-6.66,35.05c-40.72-11.94-60.89-38.77-60.89-68.72,0-28.19,26.63-49.92,62.45-49.92L277.41,595c-11.55-3.13-20.36-4.11-26.82-4.11-14.88,0-23.49,5.88-23.49,16.45C227.1,624.78,244.52,633.2,287,643.77Z" transform="translate(0 -320.79)"/><path class="cls-1" d="M354.54,560.18c-4.3,3.72-6.65,5.87-6.65,9.2,0,10.57,47.18,31.32,47.18,62.84,0,27.22-33.67,38.77-50.12,47-29.17-8.81-50.12-23.69-50.12-49.73,0-17.81,14.1-36.61,30.94-53.25,8.61-8.62,15.46-14.68,23.49-21.54Zm9.4,102a34.49,34.49,0,0,0,2.94-14.69c0-19.18-17.82-39.94-43.66-58.54a51.41,51.41,0,0,0-2.74,17.82C320.48,631.83,333.2,647.3,363.94,662.18Z" transform="translate(0 -320.79)"/><path class="cls-1" d="M408.77,642,399,562.33l31.13-6.66L431.48,577l1,20c11.36-33.08,25.45-46.2,37.2-46.2,9.2,0,21.34,8.81,21.34,19.58,0,11.16-17.42,15.07-17.42,53.84H467.9c0-37.4-9-43.47-14.49-43.47-11.35,0-17.42,24.87-17.42,84.19l.58,11.35-31.13,2Z" transform="translate(0 -320.79)"/><path class="cls-1" d="M579.88,533.35,578.32,568c0,45.61,1.37,77.33,4.3,108.46l-31.13,2V651.21c-11.35,15.67-25.84,27.61-38,27.61-15.86,0-28-13.9-28-46.21,0-43.07,22.12-64.8,64-71.85L549,533.35H513.32v-8.81h66.56ZM532.5,659.44c6.46,0,18.21-9,18.21-51.69l-.78-32.89a46,46,0,0,0-14.49-2.55c-11.55,0-18.6,10.77-18.6,48.75C516.84,651.41,523.5,659.44,532.5,659.44Z" transform="translate(0 -320.79)"/></svg>