<svg id="Calque_1" data-name="Calque 1" xmlns="http://www.w3.org/2000/svg" viewBox="0 0 1000 170.73"><defs><style>.cls-1{fill:#26338f;}</style></defs><path class="cls-1" d="M24.39,414.63V439h122v24.4h-122v24.39H0V414.63Z" transform="translate(0 -414.63)"/><path class="cls-1" d="M195.12,439v24.4h24.39v24.39H170.73V439Zm0-24.39h97.57V439H268.3v24.4h24.39v24.39H243.9V439H195.12ZM292.69,439h24.39v24.4H292.69Z" transform="translate(0 -414.63)"/><path class="cls-1" d="M365.85,414.63v48.79H341.46V414.63Zm0,48.79H439v24.39H365.85ZM439,439h24.39V414.63h24.39v73.18H463.42V463.42H439Z" transform="translate(0 -414.63)"/><path class="cls-1" d="M536.58,414.63v48.79H561V414.63h24.39v48.79h73.18v24.39H512.19V414.63Z" transform="translate(0 -414.63)"/><path class="cls-1" d="M707.31,439v24.4H731.7v24.39H682.92V439Zm0-24.39h97.57V439H780.49v24.4h24.39v24.39H756.1V439H707.31ZM804.88,439h24.39v24.4H804.88Z" transform="translate(0 -414.63)"/><path class="cls-1" d="M878,414.63v48.79h122v24.39H853.65V414.63Z" transform="translate(0 -414.63)"/><path class="cls-1" d="M24.39,536.58V561H0v-24.4Zm0,24.4H48.78v24.39H24.39Zm24.39-24.4H73.17V561H48.78Zm24.39-24.39H122v24.39H73.17ZM97.57,561H122v24.39H97.57ZM122,536.58h24.39V561H122Z" transform="translate(0 -414.63)"/><path class="cls-1" d="M195.12,512.19V561h24.39v-24.4H243.9V561h48.79v24.39h-122V512.19Zm48.78,0h48.79v24.39H243.9Zm48.79,24.39h24.39V561H292.69Z" transform="translate(0 -414.63)"/><path class="cls-1" d="M365.85,536.58V561h24.39v24.39H341.46V536.58Zm0-24.39h97.57v24.39H439V561h24.39v24.39H414.63V536.58H365.85Zm97.57,24.39h24.39V561H463.42Z" transform="translate(0 -414.63)"/><path class="cls-1" d="M536.58,512.19v24.39H561V561H536.58v24.39H512.19V512.19Zm24.39,0h73.18v24.39H561Zm73.18,24.39h24.39V561H634.15Z" transform="translate(0 -414.63)"/><path class="cls-1" d="M707.31,536.58V561H682.92v-24.4Zm0-24.39H731.7v24.39H707.31Zm0,48.79H731.7v24.39H707.31Zm24.39-24.4h24.4V561H731.7Zm24.4-24.39h48.78v24.39H756.1ZM780.49,561h24.39v24.39H780.49Zm24.39-24.4h24.39V561H804.88Z" transform="translate(0 -414.63)"/></svg>