<svg id="Calque_1" data-name="Calque 1" xmlns="http://www.w3.org/2000/svg" viewBox="0 0 1000 126.54"><path d="M0,0H26.52Q45.38,0,59.43,7.11A50.66,50.66,0,0,1,81,27.16q7.52,12.94,7.51,30.2,0,16.29-6.87,28.6a47.2,47.2,0,0,1-19.89,19.09q-13,6.8-31.07,6.79H0ZM60.39,102.33A43,43,0,0,0,79,84.52Q85.31,73,85.32,57.36q0-16.45-7-28.68A47,47,0,0,0,58,9.83Q44.72,3.2,26.52,3.2H3.2V108.64H30.68Q48.08,108.64,60.39,102.33Z"/><path d="M169.92,34.67a40.25,40.25,0,0,1,22.44,37.07q0,13.1-6.23,22.77a40.76,40.76,0,0,1-16.29,14.69,48,48,0,0,1-42.82,0,40.78,40.78,0,0,1-16.3-14.69q-6.23-9.67-6.23-22.77a40.24,40.24,0,0,1,22.45-37.07,47.74,47.74,0,0,1,43,0ZM113.36,93.15a37.67,37.67,0,0,0,15,13.9,44.36,44.36,0,0,0,40.1,0,37.8,37.8,0,0,0,15-13.9q5.67-9.11,5.67-21.41a38.17,38.17,0,0,0-20.69-34.91,43.63,43.63,0,0,0-40.1,0,38.17,38.17,0,0,0-20.69,34.91Q107.69,84,113.36,93.15Z"/><path d="M230.23,35.55q9.42-6,22.85-6,17.57,0,26.2,10.46t8.63,31.72v40.1h-3.2V71.74Q284.71,32,253.08,32a40.76,40.76,0,0,0-18.62,4.24A33.84,33.84,0,0,0,221.2,47.77a28.85,28.85,0,0,0-4.87,16.3v47.77h-3.2V32h3.2V52.56h.32A33.52,33.52,0,0,1,230.23,35.55Z"/><path d="M324,110.88a31,31,0,0,1-12.38-9.1,19.89,19.89,0,0,1-4.55-12.63q0-10.38,7-15.65a37.32,37.32,0,0,1,16.61-6.87A204.53,204.53,0,0,1,355,64.39q13.58-.8,19.41-2.08t5.83-5.43q0-11.51-8.87-18.21t-24-6.72q-17.89,0-27.48,7.75t-9.59,22h-3.19q0-15.49,10.38-23.8t29.72-8.31q17.42,0,26.84,7.51t9.43,21.41v53.36h-3.2V88.67h-.32a25.66,25.66,0,0,1-6.63,13.18A36.08,36.08,0,0,1,359.56,111a49.93,49.93,0,0,1-18.29,3.28A43.31,43.31,0,0,1,324,110.88Zm35.71-2.95A37.73,37.73,0,0,0,374.5,96.82a25.4,25.4,0,0,0,5.75-16.3V60.07h-.32c-1.17,2.46-3.78,4.05-7.83,4.8a157.8,157.8,0,0,1-18.53,1.76,211.2,211.2,0,0,0-22.37,2.23A33.19,33.19,0,0,0,316.5,75q-6.22,4.72-6.23,14.14a18.07,18.07,0,0,0,4.08,11.43,27.62,27.62,0,0,0,11.1,8.22,39,39,0,0,0,15.66,3A46.32,46.32,0,0,0,359.72,107.93Z"/><path d="M418.36,102.25q4.86,6.41,17.17,6.39v3.2q-13.74,0-19.49-7.43t-5.75-22.77V32H399.42V29.56h24.29v-.32q-9-2.07-12-8.23T408.69,5V0h3.19V5q0,12.47,4.88,18.54T433,29.56h1V32H413.48V81.64Q413.48,95.86,418.36,102.25Z"/><path d="M463.73,109a38,38,0,0,1-14.86-14.61A42.18,42.18,0,0,1,443.52,73q0-13.26,5.27-23.09a36.38,36.38,0,0,1,15-15.1q9.75-5.26,22.85-5.27a58.23,58.23,0,0,1,20,3.19,32.29,32.29,0,0,1,13.74,9,19.34,19.34,0,0,1,5,12.94q0,13.42-11.66,16.3T487,70.78l-5.59-1.28q-11.5-2.4-18.3-3.27a27,27,0,0,0-11.74.71q-5,1.61-5,7.19a38.37,38.37,0,0,0,5,19.58,34.73,34.73,0,0,0,13.82,13.34,41.88,41.88,0,0,0,20.21,4.79,42.74,42.74,0,0,0,19-4.07,32,32,0,0,0,13-11.27,29.35,29.35,0,0,0,4.72-16.45h3.19a31.7,31.7,0,0,1-5.11,17.73,33.88,33.88,0,0,1-14.14,12.14,47.4,47.4,0,0,1-20.69,4.32A43.83,43.83,0,0,1,463.73,109Zm-5.11-45A134.48,134.48,0,0,1,480,66.94l7.67,1.44a71.51,71.51,0,0,0,23.88.72q10.79-1.68,10.79-14.46a17.32,17.32,0,0,0-4.56-11.74A29.56,29.56,0,0,0,505,34.83,55.41,55.41,0,0,0,486.5,32q-17.1,0-27.88,9.83T446.71,68.54H447Q450.71,63.75,458.62,64Z"/><path d="M611.12,104.65q-10.71-8.31-10.71-23.17h3.2q0,13.59,9.74,21.25T638,111.52V72.06q-12.3-1.12-19.73-2.56A29.11,29.11,0,0,1,605.61,64q-5.21-4.08-5.2-11.74,0-10.55,10.31-16.62t25.8-6.07H638V16.94h3.2V29.72q20.45,1.11,28.11,10.22a33.27,33.27,0,0,1,7.83,21.73h-3.19a31.6,31.6,0,0,0-7-20.21q-6.87-8.39-25.72-9.35V70h.64a178.22,178.22,0,0,1,18.53,2.56A25.76,25.76,0,0,1,672,78.05q4.8,4.07,4.79,11.74a20.71,20.71,0,0,1-9.34,17.9q-9.35,6.54-24.85,6.55h-1.43v12.3H638V114.08Q621.82,113,611.12,104.65ZM638,32h-1.44a52.45,52.45,0,0,0-16.93,2.56,28.09,28.09,0,0,0-11.75,7.11,15.14,15.14,0,0,0-4.23,10.63,12,12,0,0,0,4.55,10,27.07,27.07,0,0,0,11.59,5A163.35,163.35,0,0,0,638,69.66Zm27.4,73.82a18.67,18.67,0,0,0,8.23-16q0-6.54-4.23-10.06a25,25,0,0,0-10.79-5,143.59,143.59,0,0,0-17.41-2.39v39.3h1.43Q657.13,111.68,665.36,105.77Z"/><path d="M775,110.56a58.55,58.55,0,0,1-20.69,3.68q-16.46,0-28.12-8.87t-14.38-25h-12.3V78h12q-.32-3.51-.32-6.23t.32-6.23h-12v-2.4h12.3q2.72-16,14.38-24.76t28.12-8.79a58.72,58.72,0,0,1,20.45,3.59,35.26,35.26,0,0,1,15.66,11L787.82,46a34,34,0,0,0-14.53-10.46,51.3,51.3,0,0,0-19-3.6q-15.18,0-26,8.23T715,63.11h54.16v2.4H714.65q-.31,3.51-.32,6.23t.32,6.23h54.48v2.4H715q2.55,14.85,13.34,23.16t26,8.31a51,51,0,0,0,19.1-3.67,35,35,0,0,0,14.77-10.71l2.56,1.92A35.18,35.18,0,0,1,775,110.56Z"/><path d="M878.42,38.82Q870.59,32,852.05,32q-14.85,0-23.72,4.8t-8.87,13.74a12,12,0,0,0,1.28,5.75,32.32,32.32,0,0,0,3.83,5.43,36.19,36.19,0,0,1,4.71,7.11,21.35,21.35,0,0,1,1.84,8.71h49.69v2.4H831.12a19.85,19.85,0,0,1-2.23,8.86,30.91,30.91,0,0,1-5.44,6.63,39.69,39.69,0,0,0-5.11,6.4,16.86,16.86,0,0,0-2.08,7.66h71.42v2.4H813.07q.15-6.7,2.08-10.31A34.85,34.85,0,0,1,820.9,94a31.79,31.79,0,0,0,5-6.16,17.73,17.73,0,0,0,2.08-7.9H815.47v-2.4h12.46a18,18,0,0,0-1.76-7.91,56.49,56.49,0,0,0-4.63-6.95,35.41,35.41,0,0,1-4-5.83,13.75,13.75,0,0,1-1.28-6.31q0-10.38,9.91-15.66t25.88-5.27q19.82,0,28.6,7.59t8.63,24h-3.2Q886.25,45.7,878.42,38.82Z"/><path d="M995.53,32H1000L959.58,72.54h23.17v2.39H957.34v8.95h25.41v2.4H957.34v25.56h-3.19V86.28H928.74v-2.4h25.41V74.93H928.74V72.54h23.17L911.65,32h4.47l39.62,40Z"/></svg>