<svg id="Calque_1" data-name="Calque 1" xmlns="http://www.w3.org/2000/svg" viewBox="0 0 525.38 114.28"><path d="M0,0H26.52Q45.38,0,59.43,7.11A50.68,50.68,0,0,1,81,27.16q7.52,12.94,7.51,30.2,0,16.29-6.87,28.6a47.19,47.19,0,0,1-19.89,19.09q-13,6.8-31.07,6.79H0ZM60.39,102.33A43,43,0,0,0,79,84.52Q85.32,73,85.32,57.36q0-16.45-7-28.68A47,47,0,0,0,58,9.83Q44.72,3.2,26.52,3.2H3.2V108.64H30.68Q48.08,108.64,60.39,102.33Z"/><path d="M169.92,34.67a40.25,40.25,0,0,1,22.44,37.07q0,13.1-6.23,22.77a40.84,40.84,0,0,1-16.29,14.69,48,48,0,0,1-42.82,0,40.87,40.87,0,0,1-16.3-14.69q-6.23-9.67-6.23-22.77a40.23,40.23,0,0,1,22.45-37.07,47.74,47.74,0,0,1,43,0ZM113.36,93.15a37.6,37.6,0,0,0,15,13.9,44.34,44.34,0,0,0,40.1,0,37.87,37.87,0,0,0,15-13.9q5.67-9.11,5.67-21.41a38.18,38.18,0,0,0-20.69-34.91,43.61,43.61,0,0,0-40.1,0,38.18,38.18,0,0,0-20.69,34.91A40.11,40.11,0,0,0,113.36,93.15Z"/><path d="M230.23,35.55q9.42-6,22.85-6,17.57,0,26.2,10.46t8.63,31.72v40.1h-3.2V71.74Q284.71,32,253.08,32a40.75,40.75,0,0,0-18.62,4.24A33.88,33.88,0,0,0,221.2,47.77a28.9,28.9,0,0,0-4.87,16.3v47.77h-3.2V32h3.2V52.56h.32A33.55,33.55,0,0,1,230.23,35.55Z"/><path d="M324,110.88a31.12,31.12,0,0,1-12.38-9.1,19.94,19.94,0,0,1-4.55-12.63q0-10.38,7-15.65a37.28,37.28,0,0,1,16.61-6.87A204.28,204.28,0,0,1,355,64.39q13.58-.8,19.41-2.08t5.83-5.43q0-11.51-8.87-18.21t-24-6.72q-17.89,0-27.48,7.75t-9.59,22h-3.19q0-15.5,10.38-23.8t29.72-8.31q17.42,0,26.84,7.51t9.43,21.41v53.36h-3.2V88.67H380a25.66,25.66,0,0,1-6.63,13.18A36.07,36.07,0,0,1,359.56,111a49.91,49.91,0,0,1-18.29,3.28A43.37,43.37,0,0,1,324,110.88Zm35.71-2.95A37.73,37.73,0,0,0,374.5,96.82a25.39,25.39,0,0,0,5.75-16.3V60.07h-.32c-1.17,2.46-3.78,4.05-7.83,4.8a157.62,157.62,0,0,1-18.53,1.76,212.31,212.31,0,0,0-22.37,2.23A33.14,33.14,0,0,0,316.5,75q-6.22,4.73-6.23,14.14a18,18,0,0,0,4.08,11.43,27.57,27.57,0,0,0,11.1,8.22,39,39,0,0,0,15.66,3,46.38,46.38,0,0,0,18.61-3.86Z"/><path d="M418.36,102.25q4.86,6.41,17.17,6.39v3.2q-13.74,0-19.49-7.43t-5.75-22.77V32H399.42V29.56h24.29v-.32q-9-2.07-12-8.23t-3-16V0h3.19V5q0,12.47,4.88,18.54t16.24,6h1V32H413.48V81.64Q413.48,95.86,418.36,102.25Z"/><path d="M463.73,109a38,38,0,0,1-14.86-14.61A42.21,42.21,0,0,1,443.52,73q0-13.26,5.27-23.09a36.39,36.39,0,0,1,15-15.1q9.75-5.26,22.85-5.27a58.4,58.4,0,0,1,20,3.19,32.38,32.38,0,0,1,13.74,9,19.35,19.35,0,0,1,5,12.94q0,13.42-11.66,16.3T487,70.78l-5.59-1.28q-11.51-2.4-18.3-3.27a26.92,26.92,0,0,0-11.74.71q-5,1.61-5,7.19a38.35,38.35,0,0,0,5,19.58,34.71,34.71,0,0,0,13.82,13.34,41.82,41.82,0,0,0,20.21,4.79,42.72,42.72,0,0,0,19-4.07,32,32,0,0,0,13-11.27,29.33,29.33,0,0,0,4.72-16.45h3.19a31.73,31.73,0,0,1-5.11,17.73,33.9,33.9,0,0,1-14.14,12.14,47.32,47.32,0,0,1-20.69,4.32A43.79,43.79,0,0,1,463.73,109Zm-5.11-45A135.24,135.24,0,0,1,480,66.94l7.67,1.44a71.46,71.46,0,0,0,23.88.72q10.79-1.68,10.79-14.46a17.29,17.29,0,0,0-4.56-11.74A29.6,29.6,0,0,0,505,34.83,55.36,55.36,0,0,0,486.5,32q-17.1,0-27.88,9.83T446.71,68.54H447q3.71-4.79,11.62-4.54Z"/></svg>