<?xml version="1.0" encoding="UTF-8"?><svg id="Calque_1" xmlns="http://www.w3.org/2000/svg" viewBox="0 0 2000.36 1738.42"><path d="M300.06,1666.97V228.61c0-142.88-59.53-204.8-195.27-204.8H0V0H1428.83V23.81H490.57V654.88c111.93-85.73,261.95-130.98,442.94-130.98,392.93,0,614.4,209.56,614.4,585.82,0,402.46-211.94,628.69-592.97,628.69-247.66,0-435.79-154.79-481.04-440.56h-7.14l-147.65,369.12h-19.05Zm652.5,0c259.57,0,404.84-200.04,404.84-557.25s-152.41-562.01-423.89-562.01-442.94,166.7-442.94,466.75v150.03c0,321.49,195.27,502.47,461.99,502.47Z"/><path d="M1762.22,1559.81c0-97.64,52.39-178.6,121.45-178.6,64.3,0,116.69,80.97,116.69,178.6s-52.39,178.6-116.69,178.6c-69.06,0-121.45-80.97-121.45-178.6Z"/></svg>