<svg id="Calque_1" data-name="Calque 1" xmlns="http://www.w3.org/2000/svg" viewBox="0 0 1000 690.44"><path d="M802.9,451c0,88.26-169.29,153.56-385.73,153.56-182.59,0-324.06-56.83-368.8-133a739.93,739.93,0,0,0,26.6,133H0C30.23,503,33.86,403.86,33.86,302.3S30.23,101.57,0,0H75C59.25,52,50.79,102.78,46,153.57,87.06,71.34,228.53,0,409.91,0c223.7,0,380.9,59.25,380.9,160.82,0,60.46-60.46,113.66-156,146.31C737.6,336.15,802.9,388.15,802.9,451Zm-8.47,0c0-91.9-163.24-111.25-379.68-111.25,1.21,35.07,8.46,65.3,31.44,100.36H372.43c26.6-44.74,33.85-83.43,33.85-131.8,1.21-47.16-7.25-88.27-33.85-130.59h73.76c-21.77,32.65-29,65.29-31.44,100.36,209.19,0,367.59-26.6,367.59-117.29,0-93.11-153.57-99.15-372.43-99.15-197.1,0-348.24,49.58-366.38,129.38-2.42,37.48-2.42,73.76-2.42,111.25,0,45.94,0,90.68,3.63,135.42C66.51,513.9,214,530.83,417.17,530.83,628.77,530.83,794.43,529.62,794.43,451Z"/><path d="M1000,631.19c-26.6-18.14-52-23-79.81-24.18,20.56,20.55,41.11,33.86,72.55,41.11L956.47,684.4c-7.26-31.44-20.56-53.21-39.9-73.76,0,27.81,3.62,52,23,79.8h-52c18.13-27.81,23-52,24.18-79.8-19.35,19.34-33.86,39.9-41.11,72.55l-36.28-36.28c32.65-7.25,54.42-20.55,73.76-39.9-26.6,0-52,4.84-81,23V578c29,19.34,53.2,25.39,81,24.18C888.76,584,867,569.52,834.34,561.06l36.28-36.28c7.25,33.86,20.55,54.42,41.11,73.76-1.21-27.81-6.05-53.2-24.18-79.8h52c-18.14,26.6-23,52-23,79.8,19.34-20.55,32.64-41.11,39.9-72.55l36.27,36.28c-31.44,7.25-52,20.55-72.55,39.9,29-1.21,53.21-4.84,79.81-23Z"/></svg>