<svg id="Calque_1" data-name="Calque 1" xmlns="http://www.w3.org/2000/svg" viewBox="0 0 995.85 995.85"><path d="M237.48,168.77c18.16-61.19-40.28-72.71-77.81-49.35L249.07,51c8.45-32.9-8.36-51.66-73-38.83-51.06,10.2-99.39,50-113.93,99L28.71,223.71c-3,10.2-13.87,13.49-24.07,13.49l-.49,1.65H107.79C170.63,238.85,224.3,213.18,237.48,168.77ZM78.55,111.19C96,52.3,140.17,21.05,176.2,13.81,241.63.65,261.14,39.14,200.13,86.19L51.9,201ZM51.31,203,146,130c44.37-34.22,89.26-9.22,75,38.82-8.59,28.95-45.31,68.43-112.75,68.43H41.16Z" transform="translate(-4.15)"/><path d="M329.26,233.33c61.19,18.15,72.71-40.28,49.35-77.81L447,244.92c32.9,8.44,51.66-8.37,38.83-73-10.2-51.06-50-99.39-99-113.94L274.32,24.56c-10.2-3-13.49-13.87-13.49-24.07L259.18,0V103.64C259.18,166.47,284.85,220.15,329.26,233.33ZM386.84,74.39C445.73,91.87,477,136,484.22,172.05,497.38,237.48,458.89,257,411.84,196L297,47.74Zm-126,29.73V37L295,47.16l73,94.71c34.22,44.37,9.22,89.26-38.82,75C300.31,208.29,260.83,171.57,260.83,104.12Z" transform="translate(-4.15)"/><path d="M264.7,325.11c-18.15,61.19,40.28,72.71,77.81,49.35l-89.39,68.43c-8.45,32.9,8.36,51.66,73,38.83,51.06-10.21,99.39-50,113.94-99l33.38-112.51c3-10.21,13.87-13.49,24.07-13.49L498,255H394.4C331.56,255,277.88,280.69,264.7,325.11Zm158.94,57.57C406.16,441.58,362,472.83,326,480.07c-65.43,13.16-84.93-25.34-23.93-72.38L450.29,292.87Zm27.23-91.79-94.71,73c-44.37,34.22-89.26,9.21-75-38.82,8.59-29,45.31-68.43,112.76-68.43H461Z" transform="translate(-4.15)"/><path d="M16.31,322c10.21,51.06,50,99.39,99,113.93l112.51,33.39c10.21,3,13.49,13.87,13.49,24.07l1.65.49V390.24c0-62.84-25.66-116.51-70.08-129.69-61.19-18.16-72.71,40.28-49.35,77.81L55.14,249C22.24,240.52,3.48,257.32,16.31,322Zm156.61-45c29,8.59,68.43,45.31,68.43,112.75v67.12l-34.21-10.15L134.1,352C99.88,307.64,124.89,262.75,172.92,277ZM90.34,297.9,205.16,446.13l-89.81-26.65C56.45,402,25.2,357.86,18,321.83,4.8,256.4,43.3,236.89,90.34,297.9Z" transform="translate(-4.15)"/><path d="M831.23,233.33c61.19,18.15,72.71-40.28,49.35-77.81L949,244.92c32.9,8.44,51.66-8.37,38.83-73-10.2-51.06-50-99.39-99-113.94L776.29,24.56c-10.2-3-13.49-13.87-13.49-24.07L761.15,0V103.64C761.15,166.47,786.82,220.15,831.23,233.33ZM888.81,74.39C947.7,91.87,979,136,986.19,172.05,999.35,237.48,960.86,257,913.81,196L799,47.74Zm-126,29.73V37L797,47.16l73,94.71c34.22,44.37,9.22,89.26-38.82,75C802.28,208.29,762.8,171.57,762.8,104.12Z" transform="translate(-4.15)"/><path d="M828.12,481.72c51.06-10.21,99.39-50,113.94-99l33.38-112.51c3-10.21,13.87-13.49,24.07-13.49L1000,255H896.36c-62.83,0-116.51,25.66-129.69,70.08-18.15,61.19,40.28,72.71,77.81,49.35l-89.4,68.43C746.64,475.79,763.45,494.55,828.12,481.72Zm-45-156.61c8.59-29,45.31-68.43,112.76-68.43H963l-10.15,34.21-94.71,73C813.76,398.15,768.87,373.14,783.12,325.11ZM804,407.69,952.26,292.87l-26.65,89.81C908.13,441.58,864,472.83,828,480.07,762.52,493.23,743,454.73,804,407.69Z" transform="translate(-4.15)"/><path d="M518.28,322c10.21,51.06,50,99.39,99,113.93l112.51,33.39c10.21,3,13.49,13.87,13.49,24.07l1.65.49V390.24c0-62.84-25.66-116.51-70.08-129.69-61.19-18.16-72.71,40.28-49.35,77.81L557.11,249C524.21,240.52,505.45,257.32,518.28,322Zm156.61-45c29,8.59,68.43,45.31,68.43,112.75v67.12l-34.21-10.15-73-94.71C601.85,307.64,626.86,262.75,674.89,277Zm-82.58,20.9L707.13,446.13l-89.81-26.65c-58.9-17.47-90.15-61.62-97.39-97.65C506.77,256.4,545.27,236.89,592.31,297.9Z" transform="translate(-4.15)"/><path d="M739.45,168.77c18.16-61.19-40.28-72.71-77.81-49.35L751,51c8.44-32.9-8.36-51.66-73-38.83-51.06,10.2-99.39,50-113.93,99L530.68,223.71c-3,10.2-13.87,13.49-24.07,13.49l-.49,1.65H609.76C672.6,238.85,726.27,213.18,739.45,168.77ZM580.52,111.19C598,52.3,642.14,21.05,678.17,13.81,743.6.65,763.11,39.14,702.1,86.19L553.87,201ZM553.28,203,648,130c44.37-34.22,89.26-9.22,75,38.82-8.59,28.95-45.31,68.43-112.75,68.43H543.13Z" transform="translate(-4.15)"/><path d="M176,514.13c-51.06,10.2-99.39,50-113.93,99L28.71,725.68c-3,10.2-13.87,13.49-24.07,13.49l-.49,1.65H107.79c62.84,0,116.51-25.67,129.69-70.08,18.16-61.19-40.28-72.71-77.81-49.35L249.07,553C257.52,520.06,240.71,501.3,176,514.13Zm45,156.61c-8.59,29-45.31,68.43-112.75,68.43H41.16L51.31,705l94.71-73C190.39,597.7,235.28,622.7,221,670.74Zm-20.9-82.58L51.9,703l26.65-89.82C96,554.27,140.17,523,176.2,515.78,241.63,502.62,261.14,541.11,200.13,588.16Z" transform="translate(-4.15)"/><path d="M485.87,673.85c-10.2-51.06-50-99.39-99-113.94L274.32,526.53c-10.2-3-13.49-13.87-13.49-24.07l-1.65-.49V605.6c0,62.84,25.67,116.52,70.08,129.7C390.45,753.45,402,695,378.61,657.49L447,746.88C479.94,755.33,498.7,738.52,485.87,673.85Zm-156.61,45c-28.95-8.59-68.43-45.31-68.43-112.76V539L295,549.13l73,94.71C402.3,688.21,377.3,733.1,329.26,718.85ZM411.84,698,297,549.71l89.82,26.65C445.73,593.84,477,638,484.22,674,497.38,739.45,458.89,759,411.84,698Z" transform="translate(-4.15)"/><path d="M264.7,827.08c-18.15,61.19,40.28,72.71,77.81,49.35l-89.39,68.43c-8.45,32.9,8.36,51.66,73,38.83,51.06-10.21,99.39-50,113.94-99l33.38-112.51c3-10.21,13.87-13.49,24.07-13.49L498,757H394.4C331.56,757,277.88,782.66,264.7,827.08Zm158.94,57.57C406.16,943.55,362,974.8,326,982c-65.43,13.16-84.93-25.34-23.93-72.38L450.29,794.84Zm27.23-91.79-94.71,73c-44.37,34.22-89.26,9.21-75-38.82,8.59-29,45.31-68.43,112.76-68.43H461Z" transform="translate(-4.15)"/><path d="M172.92,762.52c-61.19-18.16-72.71,40.28-49.35,77.81l-68.43-89.4c-32.9-8.45-51.66,8.36-38.83,73,10.21,51.06,50,99.39,99,113.93l112.51,33.39c10.21,3,13.49,13.87,13.49,24.07l1.65.49V892.21C243,829.37,217.34,775.7,172.92,762.52ZM115.35,921.45C56.45,904,25.2,859.83,18,823.8,4.8,758.37,43.3,738.86,90.34,799.87L205.16,948.1Zm126-29.73v67.12l-34.21-10.15L134.1,854c-34.22-44.37-9.21-89.26,38.82-75C201.88,787.56,241.35,824.28,241.35,891.72Z" transform="translate(-4.15)"/><path d="M987.84,673.85c-10.2-51.06-50-99.39-99-113.94L776.29,526.53c-10.2-3-13.49-13.87-13.49-24.07l-1.65-.49V605.6c0,62.84,25.67,116.52,70.08,129.7,61.19,18.15,72.71-40.28,49.35-77.81L949,746.88C981.91,755.33,1000.67,738.52,987.84,673.85Zm-156.61,45c-29-8.59-68.43-45.31-68.43-112.76V539L797,549.13l73,94.71C904.27,688.21,879.27,733.1,831.23,718.85ZM913.81,698,799,549.71l89.82,26.65C947.7,593.84,979,638,986.19,674,999.35,739.45,960.86,759,913.81,698Z" transform="translate(-4.15)"/><path d="M766.67,827.08c-18.15,61.19,40.28,72.71,77.81,49.35l-89.4,68.43c-8.44,32.9,8.37,51.66,73,38.83,51.06-10.21,99.39-50,113.94-99l33.38-112.51c3-10.21,13.87-13.49,24.07-13.49L1000,757H896.36C833.53,757,779.85,782.66,766.67,827.08Zm158.94,57.57C908.13,943.55,864,974.8,828,982,762.52,995.2,743,956.7,804,909.66L952.26,794.84Zm27.23-91.79-94.71,73c-44.37,34.22-89.26,9.21-75-38.82,8.59-29,45.31-68.43,112.76-68.43H963Z" transform="translate(-4.15)"/><path d="M674.89,762.52c-61.19-18.16-72.71,40.28-49.35,77.81l-68.43-89.4c-32.9-8.45-51.66,8.36-38.83,73,10.21,51.06,50,99.39,99,113.93l112.51,33.39c10.21,3,13.49,13.87,13.49,24.07l1.65.49V892.21C745,829.37,719.31,775.7,674.89,762.52ZM617.32,921.45c-58.9-17.47-90.15-61.62-97.39-97.65-13.16-65.43,25.34-84.94,72.38-23.93L707.13,948.1Zm126-29.73v67.12l-34.21-10.15-73-94.71c-34.22-44.37-9.21-89.26,38.82-75C703.85,787.56,743.32,824.28,743.32,891.72Z" transform="translate(-4.15)"/><path d="M678,514.13c-51.06,10.2-99.39,50-113.93,99L530.68,725.68c-3,10.2-13.87,13.49-24.07,13.49l-.49,1.65H609.76c62.84,0,116.51-25.67,129.69-70.08,18.16-61.19-40.28-72.71-77.81-49.35L751,553C759.48,520.06,742.68,501.3,678,514.13Zm45,156.61c-8.59,29-45.31,68.43-112.75,68.43H543.13L553.28,705l94.71-73C692.36,597.7,737.25,622.7,723,670.74Zm-20.9-82.58L553.87,703l26.65-89.82C598,554.27,642.14,523,678.17,515.78,743.6,502.62,763.11,541.11,702.1,588.16Z" transform="translate(-4.15)"/></svg>